<mxfile host="app.diagrams.net" modified="2021-07-10T01:50:16.761Z" agent="5.0 (Windows NT 10.0; Win64; x64) AppleWebKit/537.36 (KHTML, like Gecko) Chrome/91.0.4472.124 Safari/537.36 Edg/91.0.864.64" etag="xvRP1YGg79jKD65nEZPq" version="14.8.5" type="github" pages="5">
  <diagram id="NlA3gRE_fuQO7--18hkW" name="Client Side Request">
    <mxGraphModel dx="1102" dy="663" grid="1" gridSize="10" guides="1" tooltips="1" connect="1" arrows="1" fold="1" page="1" pageScale="1" pageWidth="1169" pageHeight="1654" math="0" shadow="0">
      <root>
        <mxCell id="0" />
        <mxCell id="1" parent="0" />
        <mxCell id="oMbXFaHzuUlfp1lvWc5A-46" value="" style="edgeStyle=none;rounded=0;orthogonalLoop=1;jettySize=auto;html=1;fontFamily=Bernina Sans Offc;fontSize=12;startArrow=none;startFill=0;endArrow=open;endFill=0;" parent="1" source="oMbXFaHzuUlfp1lvWc5A-2" target="oMbXFaHzuUlfp1lvWc5A-42" edge="1">
          <mxGeometry relative="1" as="geometry" />
        </mxCell>
        <mxCell id="oMbXFaHzuUlfp1lvWc5A-2" value="" style="shape=image;html=1;verticalAlign=top;verticalLabelPosition=bottom;labelBackgroundColor=#ffffff;imageAspect=0;aspect=fixed;image=https://cdn2.iconfinder.com/data/icons/social-media-and-payment/64/-36-128.png;sketch=0;" parent="1" vertex="1">
          <mxGeometry x="50" y="130" width="90" height="90" as="geometry" />
        </mxCell>
        <mxCell id="oMbXFaHzuUlfp1lvWc5A-3" value="How Browser sends HTTP requests to the web?" style="text;html=1;strokeColor=none;fillColor=none;align=center;verticalAlign=middle;whiteSpace=wrap;rounded=0;fontSize=16;fontStyle=0;fontFamily=Bernina Sans Offc;" parent="1" vertex="1">
          <mxGeometry x="220" y="40" width="460" height="20" as="geometry" />
        </mxCell>
        <mxCell id="oMbXFaHzuUlfp1lvWc5A-4" value="Browser" style="text;html=1;align=center;verticalAlign=middle;resizable=0;points=[];autosize=1;strokeColor=none;fontSize=16;fontFamily=Caveat;fontSource=https%3A%2F%2Ffonts.googleapis.com%2Fcss%3Ffamily%3DCaveat;" parent="1" vertex="1">
          <mxGeometry x="60" y="220" width="70" height="20" as="geometry" />
        </mxCell>
        <mxCell id="oMbXFaHzuUlfp1lvWc5A-7" value="&lt;font face=&quot;Caveat&quot; data-font-src=&quot;https://fonts.googleapis.com/css?family=Caveat&quot;&gt;Browser &lt;br&gt;Cache&lt;/font&gt;" style="text;html=1;align=center;verticalAlign=middle;resizable=0;points=[];autosize=1;strokeColor=none;fontSize=16;fontFamily=Tahoma;" parent="1" vertex="1">
          <mxGeometry x="315" y="202" width="60" height="50" as="geometry" />
        </mxCell>
        <mxCell id="oMbXFaHzuUlfp1lvWc5A-10" value="DNS Server" style="text;html=1;align=center;verticalAlign=middle;resizable=0;points=[];autosize=1;strokeColor=none;fontSize=16;fontFamily=Caveat;fontSource=https%3A%2F%2Ffonts.googleapis.com%2Fcss%3Ffamily%3DCaveat;" parent="1" vertex="1">
          <mxGeometry x="427.5" y="210" width="80" height="20" as="geometry" />
        </mxCell>
        <mxCell id="oMbXFaHzuUlfp1lvWc5A-16" value="" style="rounded=0;orthogonalLoop=1;jettySize=auto;html=1;fontFamily=Caveat;fontSource=https%3A%2F%2Ffonts.googleapis.com%2Fcss%3Ffamily%3DCaveat;fontSize=16;endArrow=open;endFill=0;" parent="1" source="oMbXFaHzuUlfp1lvWc5A-11" target="oMbXFaHzuUlfp1lvWc5A-15" edge="1">
          <mxGeometry relative="1" as="geometry" />
        </mxCell>
        <mxCell id="oMbXFaHzuUlfp1lvWc5A-11" value="" style="points=[[0.015,0.015,0],[0.985,0.015,0],[0.985,0.985,0],[0.015,0.985,0],[0.25,0,0],[0.5,0,0],[0.75,0,0],[1,0.25,0],[1,0.5,0],[1,0.75,0],[0.75,1,0],[0.5,1,0],[0.25,1,0],[0,0.75,0],[0,0.5,0],[0,0.25,0]];verticalLabelPosition=bottom;html=1;verticalAlign=top;aspect=fixed;align=center;pointerEvents=1;shape=mxgraph.cisco19.dns_server;strokeColor=#006EAF;fontFamily=Tahoma;fontSize=16;fillColor=#1ba1e2;fontColor=#ffffff;" parent="1" vertex="1">
          <mxGeometry x="520" y="150" width="27.500000000000004" height="50" as="geometry" />
        </mxCell>
        <mxCell id="oMbXFaHzuUlfp1lvWc5A-35" style="edgeStyle=none;rounded=0;orthogonalLoop=1;jettySize=auto;html=1;exitX=0.5;exitY=1;exitDx=0;exitDy=0;fontFamily=Bernina Sans Offc;fontSize=12;startArrow=none;startFill=0;endArrow=none;endFill=0;" parent="1" source="oMbXFaHzuUlfp1lvWc5A-15" edge="1">
          <mxGeometry relative="1" as="geometry">
            <mxPoint x="750" y="225" as="targetPoint" />
          </mxGeometry>
        </mxCell>
        <mxCell id="oMbXFaHzuUlfp1lvWc5A-15" value="TCP Connection" style="ellipse;whiteSpace=wrap;html=1;sketch=0;fontFamily=Caveat;fontSource=https%3A%2F%2Ffonts.googleapis.com%2Fcss%3Ffamily%3DCaveat;fontSize=16;fillColor=#ffffff;verticalAlign=middle;" parent="1" vertex="1">
          <mxGeometry x="700" y="145" width="100" height="60" as="geometry" />
        </mxCell>
        <mxCell id="oMbXFaHzuUlfp1lvWc5A-17" value="Initialtes" style="text;html=1;align=center;verticalAlign=middle;resizable=0;points=[];autosize=1;strokeColor=none;fontSize=16;fontFamily=Caveat;" parent="1" vertex="1">
          <mxGeometry x="590" y="150" width="70" height="20" as="geometry" />
        </mxCell>
        <mxCell id="oMbXFaHzuUlfp1lvWc5A-22" value="" style="rounded=0;orthogonalLoop=1;jettySize=auto;html=1;fontFamily=Caveat;fontSource=https%3A%2F%2Ffonts.googleapis.com%2Fcss%3Ffamily%3DCaveat;fontSize=16;endArrow=open;endFill=0;" parent="1" source="oMbXFaHzuUlfp1lvWc5A-18" target="oMbXFaHzuUlfp1lvWc5A-21" edge="1">
          <mxGeometry relative="1" as="geometry" />
        </mxCell>
        <mxCell id="oMbXFaHzuUlfp1lvWc5A-18" value="HTTP&#xa;protocol" style="outlineConnect=0;fontColor=#232F3E;gradientColor=none;strokeColor=#232F3E;fillColor=#ffffff;dashed=0;verticalLabelPosition=bottom;verticalAlign=top;align=center;html=1;fontSize=12;fontStyle=0;aspect=fixed;shape=mxgraph.aws4.resourceIcon;resIcon=mxgraph.aws4.http_protocol;sketch=0;fontFamily=Caveat;fontSource=https%3A%2F%2Ffonts.googleapis.com%2Fcss%3Ffamily%3DCaveat;" parent="1" vertex="1">
          <mxGeometry x="720" y="280" width="60" height="60" as="geometry" />
        </mxCell>
        <mxCell id="oMbXFaHzuUlfp1lvWc5A-28" style="edgeStyle=orthogonalEdgeStyle;rounded=0;orthogonalLoop=1;jettySize=auto;html=1;exitX=1;exitY=0.25;exitDx=0;exitDy=0;fontFamily=Caveat;fontSource=https%3A%2F%2Ffonts.googleapis.com%2Fcss%3Ffamily%3DCaveat;fontSize=16;endArrow=open;endFill=0;" parent="1" source="oMbXFaHzuUlfp1lvWc5A-21" edge="1">
          <mxGeometry relative="1" as="geometry">
            <mxPoint x="710" y="294" as="targetPoint" />
          </mxGeometry>
        </mxCell>
        <mxCell id="oMbXFaHzuUlfp1lvWc5A-21" value="" style="aspect=fixed;perimeter=ellipsePerimeter;html=1;align=center;shadow=0;dashed=0;spacingTop=3;image;image=img/lib/active_directory/web_server.svg;sketch=0;fontFamily=Caveat;fontSource=https%3A%2F%2Ffonts.googleapis.com%2Fcss%3Ffamily%3DCaveat;fontSize=16;fillColor=#ffffff;" parent="1" vertex="1">
          <mxGeometry x="360" y="272.5" width="60" height="75" as="geometry" />
        </mxCell>
        <mxCell id="oMbXFaHzuUlfp1lvWc5A-26" value="&lt;div style=&quot;font-size: 12px;&quot;&gt;The server handles the request&lt;/div&gt;&lt;div style=&quot;font-size: 12px;&quot;&gt;and sends back a response.&lt;/div&gt;" style="text;html=1;align=center;verticalAlign=middle;resizable=0;points=[];autosize=1;strokeColor=none;fontSize=12;fontFamily=Bernina Sans Offc;" parent="1" vertex="1">
          <mxGeometry x="301.25" y="347.5" width="180" height="30" as="geometry" />
        </mxCell>
        <mxCell id="oMbXFaHzuUlfp1lvWc5A-27" value="Web Server" style="text;html=1;align=center;verticalAlign=middle;resizable=0;points=[];autosize=1;strokeColor=none;fontSize=16;fontFamily=Caveat;fontSource=https%3A%2F%2Ffonts.googleapis.com%2Fcss%3Ffamily%3DCaveat;" parent="1" vertex="1">
          <mxGeometry x="347.5" y="252.5" width="80" height="20" as="geometry" />
        </mxCell>
        <mxCell id="oMbXFaHzuUlfp1lvWc5A-50" style="edgeStyle=none;rounded=0;orthogonalLoop=1;jettySize=auto;html=1;entryX=0;entryY=0.5;entryDx=0;entryDy=0;entryPerimeter=0;fontFamily=Bernina Sans Offc;fontSize=12;startArrow=none;startFill=0;endArrow=open;endFill=0;" parent="1" source="oMbXFaHzuUlfp1lvWc5A-30" target="oMbXFaHzuUlfp1lvWc5A-11" edge="1">
          <mxGeometry relative="1" as="geometry" />
        </mxCell>
        <mxCell id="oMbXFaHzuUlfp1lvWc5A-30" value="&lt;div style=&quot;font-size: 12px;&quot;&gt;If the requested URL&amp;nbsp;&lt;/div&gt;&lt;div style=&quot;font-size: 12px;&quot;&gt;is not in the cache&lt;/div&gt;" style="text;html=1;align=center;verticalAlign=middle;resizable=0;points=[];autosize=1;strokeColor=none;fontSize=12;fontFamily=Bernina Sans Offc;" parent="1" vertex="1">
          <mxGeometry x="370" y="160" width="130" height="30" as="geometry" />
        </mxCell>
        <mxCell id="oMbXFaHzuUlfp1lvWc5A-34" value="" style="edgeStyle=none;rounded=0;orthogonalLoop=1;jettySize=auto;html=1;fontFamily=Bernina Sans Offc;fontSize=12;startArrow=none;startFill=0;endArrow=open;endFill=0;" parent="1" target="oMbXFaHzuUlfp1lvWc5A-18" edge="1">
          <mxGeometry relative="1" as="geometry">
            <mxPoint x="750" y="257.5" as="sourcePoint" />
          </mxGeometry>
        </mxCell>
        <mxCell id="oMbXFaHzuUlfp1lvWc5A-31" value="&lt;div&gt;Once the TCP connection is established,&lt;/div&gt;&lt;div&gt;it is time to start transferring data!&lt;/div&gt;" style="text;html=1;align=center;verticalAlign=middle;resizable=0;points=[];autosize=1;strokeColor=none;fontSize=12;fontFamily=Bernina Sans Offc;" parent="1" vertex="1">
          <mxGeometry x="640" y="222.5" width="230" height="30" as="geometry" />
        </mxCell>
        <mxCell id="oMbXFaHzuUlfp1lvWc5A-36" value="" style="endArrow=none;dashed=1;html=1;fontFamily=Bernina Sans Offc;fontSize=12;" parent="1" edge="1">
          <mxGeometry width="50" height="50" relative="1" as="geometry">
            <mxPoint x="40" y="250" as="sourcePoint" />
            <mxPoint x="40" y="120" as="targetPoint" />
          </mxGeometry>
        </mxCell>
        <mxCell id="oMbXFaHzuUlfp1lvWc5A-37" value="" style="endArrow=none;dashed=1;html=1;fontFamily=Bernina Sans Offc;fontSize=12;" parent="1" edge="1">
          <mxGeometry width="50" height="50" relative="1" as="geometry">
            <mxPoint x="40" y="120" as="sourcePoint" />
            <mxPoint x="300" y="120" as="targetPoint" />
          </mxGeometry>
        </mxCell>
        <mxCell id="oMbXFaHzuUlfp1lvWc5A-39" value="" style="endArrow=none;dashed=1;html=1;fontFamily=Bernina Sans Offc;fontSize=12;startArrow=none;" parent="1" source="oMbXFaHzuUlfp1lvWc5A-5" edge="1">
          <mxGeometry width="50" height="50" relative="1" as="geometry">
            <mxPoint x="300" y="250" as="sourcePoint" />
            <mxPoint x="300" y="120" as="targetPoint" />
          </mxGeometry>
        </mxCell>
        <mxCell id="oMbXFaHzuUlfp1lvWc5A-40" value="" style="endArrow=none;dashed=1;html=1;fontFamily=Bernina Sans Offc;fontSize=12;" parent="1" edge="1">
          <mxGeometry width="50" height="50" relative="1" as="geometry">
            <mxPoint x="40" y="250" as="sourcePoint" />
            <mxPoint x="300" y="250" as="targetPoint" />
          </mxGeometry>
        </mxCell>
        <mxCell id="oMbXFaHzuUlfp1lvWc5A-41" value="&lt;font style=&quot;font-size: 12px&quot;&gt;Internal Browser Mechanism&lt;/font&gt;" style="text;html=1;align=center;verticalAlign=middle;resizable=0;points=[];autosize=1;strokeColor=none;fontSize=12;fontFamily=Bernina Sans Offc;fontStyle=0" parent="1" vertex="1">
          <mxGeometry x="80" y="252.5" width="170" height="20" as="geometry" />
        </mxCell>
        <mxCell id="oMbXFaHzuUlfp1lvWc5A-45" value="" style="edgeStyle=none;rounded=0;orthogonalLoop=1;jettySize=auto;html=1;fontFamily=Bernina Sans Offc;fontSize=12;startArrow=none;startFill=0;endArrow=open;endFill=0;" parent="1" source="oMbXFaHzuUlfp1lvWc5A-42" target="oMbXFaHzuUlfp1lvWc5A-5" edge="1">
          <mxGeometry relative="1" as="geometry" />
        </mxCell>
        <mxCell id="oMbXFaHzuUlfp1lvWc5A-42" value="" style="aspect=fixed;html=1;points=[];align=center;image;fontSize=12;image=img/lib/azure2/networking/Public_IP_Addresses.svg;sketch=0;fontFamily=Bernina Sans Offc;fillColor=#ffffff;" parent="1" vertex="1">
          <mxGeometry x="185" y="150" width="65" height="52" as="geometry" />
        </mxCell>
        <mxCell id="oMbXFaHzuUlfp1lvWc5A-48" style="edgeStyle=none;rounded=0;orthogonalLoop=1;jettySize=auto;html=1;exitX=1;exitY=0.5;exitDx=0;exitDy=0;exitPerimeter=0;fontFamily=Bernina Sans Offc;fontSize=12;startArrow=none;startFill=0;endArrow=none;endFill=0;" parent="1" source="oMbXFaHzuUlfp1lvWc5A-5" target="oMbXFaHzuUlfp1lvWc5A-30" edge="1">
          <mxGeometry relative="1" as="geometry" />
        </mxCell>
        <mxCell id="oMbXFaHzuUlfp1lvWc5A-52" style="edgeStyle=orthogonalEdgeStyle;curved=1;rounded=0;orthogonalLoop=1;jettySize=auto;html=1;exitX=0.81;exitY=0.1;exitDx=0;exitDy=0;exitPerimeter=0;fontFamily=Bernina Sans Offc;fontSize=12;startArrow=none;startFill=0;endArrow=none;endFill=0;entryX=1;entryY=0;entryDx=0;entryDy=0;" parent="1" source="oMbXFaHzuUlfp1lvWc5A-5" target="oMbXFaHzuUlfp1lvWc5A-15" edge="1">
          <mxGeometry relative="1" as="geometry">
            <mxPoint x="760" y="140" as="targetPoint" />
            <Array as="points">
              <mxPoint x="352" y="130" />
              <mxPoint x="785" y="130" />
            </Array>
          </mxGeometry>
        </mxCell>
        <mxCell id="oMbXFaHzuUlfp1lvWc5A-5" value="" style="verticalLabelPosition=bottom;html=1;verticalAlign=top;align=center;strokeColor=#006EAF;shape=mxgraph.azure.azure_cache;fontFamily=Tahoma;fontSize=16;fontColor=#ffffff;fillColor=none;" parent="1" vertex="1">
          <mxGeometry x="315" y="150" width="45" height="50" as="geometry" />
        </mxCell>
        <mxCell id="oMbXFaHzuUlfp1lvWc5A-43" value="" style="endArrow=none;dashed=1;html=1;fontFamily=Bernina Sans Offc;fontSize=12;" parent="1" target="oMbXFaHzuUlfp1lvWc5A-5" edge="1">
          <mxGeometry width="50" height="50" relative="1" as="geometry">
            <mxPoint x="300" y="250" as="sourcePoint" />
            <mxPoint x="300" y="120" as="targetPoint" />
          </mxGeometry>
        </mxCell>
        <mxCell id="oMbXFaHzuUlfp1lvWc5A-47" value="&lt;font face=&quot;Caveat&quot; data-font-src=&quot;https://fonts.googleapis.com/css?family=Caveat&quot; style=&quot;font-size: 16px&quot;&gt;Finding DNS&lt;/font&gt;" style="text;html=1;align=center;verticalAlign=middle;resizable=0;points=[];autosize=1;strokeColor=none;fontSize=12;fontFamily=Bernina Sans Offc;" parent="1" vertex="1">
          <mxGeometry x="172.5" y="220" width="90" height="20" as="geometry" />
        </mxCell>
        <mxCell id="oMbXFaHzuUlfp1lvWc5A-54" value="&lt;div&gt;If the requested URL&amp;nbsp;&lt;/div&gt;&lt;div&gt;is found in cache&lt;/div&gt;" style="text;html=1;align=center;verticalAlign=middle;resizable=0;points=[];autosize=1;strokeColor=none;fontSize=12;fontFamily=Bernina Sans Offc;" parent="1" vertex="1">
          <mxGeometry x="547.5" y="90" width="130" height="30" as="geometry" />
        </mxCell>
        <mxCell id="oMbXFaHzuUlfp1lvWc5A-55" value="HTTP Response" style="text;html=1;align=center;verticalAlign=middle;resizable=0;points=[];autosize=1;strokeColor=none;fontSize=16;fontFamily=Caveat;fontSource=https%3A%2F%2Ffonts.googleapis.com%2Fcss%3Ffamily%3DCaveat;" parent="1" vertex="1">
          <mxGeometry x="507.5" y="272.5" width="100" height="20" as="geometry" />
        </mxCell>
      </root>
    </mxGraphModel>
  </diagram>
  <diagram id="oYfNXayqWkZ6KmtnufhN" name="Browser Cache">
    <mxGraphModel dx="868" dy="531" grid="1" gridSize="10" guides="1" tooltips="1" connect="1" arrows="1" fold="1" page="1" pageScale="1" pageWidth="1169" pageHeight="1654" math="0" shadow="0">
      <root>
        <mxCell id="wFJk4p1SuyNsVBWyP0SX-0" />
        <mxCell id="wFJk4p1SuyNsVBWyP0SX-1" parent="wFJk4p1SuyNsVBWyP0SX-0" />
        <mxCell id="HfrlWxRxWhmKk7VCwK1o-5" style="edgeStyle=none;rounded=0;orthogonalLoop=1;jettySize=auto;html=1;fontFamily=Caveat;fontSource=https%3A%2F%2Ffonts.googleapis.com%2Fcss%3Ffamily%3DCaveat;fontSize=16;endArrow=open;endFill=0;" parent="wFJk4p1SuyNsVBWyP0SX-1" source="UfnfAt4ofgu__PhCgvee-0" edge="1">
          <mxGeometry relative="1" as="geometry">
            <mxPoint x="300" y="176" as="targetPoint" />
          </mxGeometry>
        </mxCell>
        <mxCell id="UfnfAt4ofgu__PhCgvee-0" value="" style="aspect=fixed;html=1;points=[];align=center;image;fontSize=16;image=img/lib/azure2/networking/Public_IP_Addresses.svg;sketch=0;fontFamily=Caveat;fillColor=#ffffff;fontSource=https%3A%2F%2Ffonts.googleapis.com%2Fcss%3Ffamily%3DCaveat;" parent="wFJk4p1SuyNsVBWyP0SX-1" vertex="1">
          <mxGeometry x="185" y="150" width="65" height="52" as="geometry" />
        </mxCell>
        <mxCell id="HfrlWxRxWhmKk7VCwK1o-1" style="edgeStyle=none;rounded=0;orthogonalLoop=1;jettySize=auto;html=1;entryX=0;entryY=0.5;entryDx=0;entryDy=0;entryPerimeter=0;fontFamily=Caveat;fontSource=https%3A%2F%2Ffonts.googleapis.com%2Fcss%3Ffamily%3DCaveat;fontSize=16;endArrow=open;endFill=0;startArrow=none;" parent="wFJk4p1SuyNsVBWyP0SX-1" source="HfrlWxRxWhmKk7VCwK1o-3" target="HfrlWxRxWhmKk7VCwK1o-0" edge="1">
          <mxGeometry relative="1" as="geometry" />
        </mxCell>
        <mxCell id="MuWgB2L9fkodZF_woyt0-0" value="" style="verticalLabelPosition=bottom;html=1;verticalAlign=top;align=center;strokeColor=#006EAF;shape=mxgraph.azure.azure_cache;fontFamily=Caveat;fontSize=16;fontColor=#ffffff;fillColor=none;fontSource=https%3A%2F%2Ffonts.googleapis.com%2Fcss%3Ffamily%3DCaveat;" parent="wFJk4p1SuyNsVBWyP0SX-1" vertex="1">
          <mxGeometry x="315" y="150" width="45" height="50" as="geometry" />
        </mxCell>
        <mxCell id="f2JCrN3_v3svfWW_TFhQ-0" value="Looking for DNS inside the browser before sending request to Internet" style="text;html=1;align=center;verticalAlign=middle;resizable=0;points=[];autosize=1;strokeColor=none;fontFamily=Bernina Sans Offc;fontSize=16;" parent="wFJk4p1SuyNsVBWyP0SX-1" vertex="1">
          <mxGeometry x="102.5" y="80" width="520" height="20" as="geometry" />
        </mxCell>
        <mxCell id="HfrlWxRxWhmKk7VCwK1o-4" style="edgeStyle=none;rounded=0;orthogonalLoop=1;jettySize=auto;html=1;exitX=1;exitY=0.5;exitDx=0;exitDy=0;fontFamily=Caveat;fontSource=https%3A%2F%2Ffonts.googleapis.com%2Fcss%3Ffamily%3DCaveat;fontSize=16;endArrow=open;endFill=0;" parent="wFJk4p1SuyNsVBWyP0SX-1" source="47v30y2UzKcgmQZoOv1H-0" target="UfnfAt4ofgu__PhCgvee-0" edge="1">
          <mxGeometry relative="1" as="geometry" />
        </mxCell>
        <mxCell id="47v30y2UzKcgmQZoOv1H-0" value="" style="shape=image;html=1;verticalAlign=top;verticalLabelPosition=bottom;labelBackgroundColor=#ffffff;imageAspect=0;aspect=fixed;image=https://cdn2.iconfinder.com/data/icons/social-media-and-payment/64/-36-128.png;sketch=0;fontFamily=Caveat;fontSource=https%3A%2F%2Ffonts.googleapis.com%2Fcss%3Ffamily%3DCaveat;fontSize=16;" parent="wFJk4p1SuyNsVBWyP0SX-1" vertex="1">
          <mxGeometry x="50" y="141" width="70" height="70" as="geometry" />
        </mxCell>
        <mxCell id="47v30y2UzKcgmQZoOv1H-1" value="" style="aspect=fixed;html=1;points=[];align=center;image;fontSize=16;image=img/lib/mscae/DC_OS.svg;fontFamily=Caveat;fontSource=https%3A%2F%2Ffonts.googleapis.com%2Fcss%3Ffamily%3DCaveat;" parent="wFJk4p1SuyNsVBWyP0SX-1" vertex="1">
          <mxGeometry x="319" y="365" width="56" height="70" as="geometry" />
        </mxCell>
        <mxCell id="47v30y2UzKcgmQZoOv1H-2" value="Browser" style="text;html=1;align=center;verticalAlign=middle;resizable=0;points=[];autosize=1;strokeColor=none;fontFamily=Caveat;fontSource=https%3A%2F%2Ffonts.googleapis.com%2Fcss%3Ffamily%3DCaveat;fontSize=16;" parent="wFJk4p1SuyNsVBWyP0SX-1" vertex="1">
          <mxGeometry x="55" y="211" width="60" height="20" as="geometry" />
        </mxCell>
        <mxCell id="47v30y2UzKcgmQZoOv1H-3" value="Finding DNS" style="text;html=1;align=center;verticalAlign=middle;resizable=0;points=[];autosize=1;strokeColor=none;fontFamily=Caveat;fontSource=https%3A%2F%2Ffonts.googleapis.com%2Fcss%3Ffamily%3DCaveat;fontSize=16;" parent="wFJk4p1SuyNsVBWyP0SX-1" vertex="1">
          <mxGeometry x="172.5" y="211" width="90" height="20" as="geometry" />
        </mxCell>
        <mxCell id="47v30y2UzKcgmQZoOv1H-4" value="Cache" style="text;html=1;align=center;verticalAlign=middle;resizable=0;points=[];autosize=1;strokeColor=none;fontFamily=Caveat;fontSource=https%3A%2F%2Ffonts.googleapis.com%2Fcss%3Ffamily%3DCaveat;fontSize=16;" parent="wFJk4p1SuyNsVBWyP0SX-1" vertex="1">
          <mxGeometry x="312.5" y="211" width="50" height="20" as="geometry" />
        </mxCell>
        <mxCell id="47v30y2UzKcgmQZoOv1H-5" value="" style="aspect=fixed;html=1;points=[];align=center;image;fontSize=16;image=img/lib/azure2/general/Cache.svg;fontFamily=Caveat;fontSource=https%3A%2F%2Ffonts.googleapis.com%2Fcss%3Ffamily%3DCaveat;" parent="wFJk4p1SuyNsVBWyP0SX-1" vertex="1">
          <mxGeometry x="315" y="266" width="64" height="64" as="geometry" />
        </mxCell>
        <mxCell id="47v30y2UzKcgmQZoOv1H-6" value="Browser Cache" style="text;html=1;align=center;verticalAlign=middle;resizable=0;points=[];autosize=1;strokeColor=none;fontFamily=Caveat;fontSource=https%3A%2F%2Ffonts.googleapis.com%2Fcss%3Ffamily%3DCaveat;fontSize=16;" parent="wFJk4p1SuyNsVBWyP0SX-1" vertex="1">
          <mxGeometry x="185" y="288" width="100" height="20" as="geometry" />
        </mxCell>
        <mxCell id="47v30y2UzKcgmQZoOv1H-7" value="OS Cache" style="text;html=1;align=center;verticalAlign=middle;resizable=0;points=[];autosize=1;strokeColor=none;fontFamily=Caveat;fontSource=https%3A%2F%2Ffonts.googleapis.com%2Fcss%3Ffamily%3DCaveat;fontSize=16;" parent="wFJk4p1SuyNsVBWyP0SX-1" vertex="1">
          <mxGeometry x="220" y="390" width="70" height="20" as="geometry" />
        </mxCell>
        <mxCell id="47v30y2UzKcgmQZoOv1H-8" value="" style="image;html=1;image=img/lib/clip_art/networking/Router_Icon_128x128.png;fontFamily=Caveat;fontSource=https%3A%2F%2Ffonts.googleapis.com%2Fcss%3Ffamily%3DCaveat;fontSize=16;" parent="wFJk4p1SuyNsVBWyP0SX-1" vertex="1">
          <mxGeometry x="307" y="462.5" width="80" height="67.5" as="geometry" />
        </mxCell>
        <mxCell id="47v30y2UzKcgmQZoOv1H-9" value="Router Cache" style="text;html=1;align=center;verticalAlign=middle;resizable=0;points=[];autosize=1;strokeColor=none;fontFamily=Caveat;fontSource=https%3A%2F%2Ffonts.googleapis.com%2Fcss%3Ffamily%3DCaveat;fontSize=16;" parent="wFJk4p1SuyNsVBWyP0SX-1" vertex="1">
          <mxGeometry x="197" y="480" width="90" height="20" as="geometry" />
        </mxCell>
        <mxCell id="47v30y2UzKcgmQZoOv1H-11" value="" style="pointerEvents=1;shadow=0;dashed=0;html=1;strokeColor=none;fillColor=#434445;aspect=fixed;labelPosition=center;verticalLabelPosition=bottom;verticalAlign=top;align=center;outlineConnect=0;shape=mxgraph.vvd.service_provider_cloud_environment;fontFamily=Caveat;fontSource=https%3A%2F%2Ffonts.googleapis.com%2Fcss%3Ffamily%3DCaveat;fontSize=16;" parent="wFJk4p1SuyNsVBWyP0SX-1" vertex="1">
          <mxGeometry x="313.5" y="560" width="65.5" height="57.64" as="geometry" />
        </mxCell>
        <mxCell id="47v30y2UzKcgmQZoOv1H-12" value="ISP Cache" style="text;html=1;align=center;verticalAlign=middle;resizable=0;points=[];autosize=1;strokeColor=none;fontSize=16;fontFamily=Caveat;" parent="wFJk4p1SuyNsVBWyP0SX-1" vertex="1">
          <mxGeometry x="215" y="578.8199999999999" width="70" height="20" as="geometry" />
        </mxCell>
        <mxCell id="47v30y2UzKcgmQZoOv1H-13" value="&lt;span style=&quot;color: rgb(41 , 41 , 41) ; font-size: 12px ; letter-spacing: -0.063px ; background-color: rgb(255 , 255 , 255)&quot;&gt;&lt;font face=&quot;Bernina Sans Offc&quot; style=&quot;font-size: 12px&quot;&gt;The browser maintains a repository of DNS &lt;br&gt;records for a fixed duration&lt;/font&gt;&lt;/span&gt;" style="text;html=1;align=left;verticalAlign=middle;resizable=0;points=[];autosize=1;strokeColor=none;fontSize=16;fontFamily=Caveat;" parent="wFJk4p1SuyNsVBWyP0SX-1" vertex="1">
          <mxGeometry x="410" y="273" width="240" height="50" as="geometry" />
        </mxCell>
        <mxCell id="47v30y2UzKcgmQZoOv1H-15" value="&lt;span style=&quot;color: rgb(41 , 41 , 41) ; letter-spacing: -0.063px ; background-color: rgb(255 , 255 , 255)&quot;&gt;&lt;font face=&quot;Bernina Sans Offc&quot; style=&quot;font-size: 12px&quot;&gt;The browser checks the OS cache. If it is not in the &lt;br&gt;browser cache, the browser will make a system call&lt;/font&gt;&lt;/span&gt;" style="text;html=1;align=left;verticalAlign=middle;resizable=0;points=[];autosize=1;strokeColor=none;fontSize=16;fontFamily=Caveat;" parent="wFJk4p1SuyNsVBWyP0SX-1" vertex="1">
          <mxGeometry x="410" y="375" width="290" height="50" as="geometry" />
        </mxCell>
        <mxCell id="47v30y2UzKcgmQZoOv1H-22" value="&lt;span style=&quot;color: rgb(41 , 41 , 41) ; letter-spacing: -0.063px ; background-color: rgb(255 , 255 , 255)&quot;&gt;&lt;font face=&quot;Bernina Sans Offc&quot; style=&quot;font-size: 12px&quot;&gt;The browser will communicate with the router that &lt;br&gt;maintains its’ own cache of DNS records.&lt;/font&gt;&lt;/span&gt;" style="text;html=1;align=left;verticalAlign=middle;resizable=0;points=[];autosize=1;strokeColor=none;fontSize=16;fontFamily=Caveat;" parent="wFJk4p1SuyNsVBWyP0SX-1" vertex="1">
          <mxGeometry x="410" y="471.25" width="290" height="50" as="geometry" />
        </mxCell>
        <mxCell id="47v30y2UzKcgmQZoOv1H-23" value="&lt;span style=&quot;color: rgb(41 , 41 , 41) ; font-size: 12px ; letter-spacing: -0.063px ; background-color: rgb(255 , 255 , 255)&quot;&gt;&lt;font face=&quot;Bernina Sans Offc&quot;&gt;If all steps fail, the browser will move on to the ISP. Your ISP maintains &lt;br&gt;its’ own DNS server, which includes a cache of DNS records&lt;/font&gt;&lt;/span&gt;" style="text;html=1;align=left;verticalAlign=middle;resizable=0;points=[];autosize=1;strokeColor=none;fontSize=16;fontFamily=Caveat;" parent="wFJk4p1SuyNsVBWyP0SX-1" vertex="1">
          <mxGeometry x="410" y="563.8199999999999" width="390" height="50" as="geometry" />
        </mxCell>
        <mxCell id="47v30y2UzKcgmQZoOv1H-24" value="" style="endArrow=none;dashed=1;html=1;fontFamily=Caveat;fontSource=https%3A%2F%2Ffonts.googleapis.com%2Fcss%3Ffamily%3DCaveat;fontSize=16;" parent="wFJk4p1SuyNsVBWyP0SX-1" edge="1">
          <mxGeometry width="50" height="50" relative="1" as="geometry">
            <mxPoint x="300" y="640" as="sourcePoint" />
            <mxPoint x="300" y="140" as="targetPoint" />
          </mxGeometry>
        </mxCell>
        <mxCell id="47v30y2UzKcgmQZoOv1H-25" value="" style="endArrow=none;dashed=1;html=1;fontFamily=Caveat;fontSource=https%3A%2F%2Ffonts.googleapis.com%2Fcss%3Ffamily%3DCaveat;fontSize=16;" parent="wFJk4p1SuyNsVBWyP0SX-1" edge="1">
          <mxGeometry width="50" height="50" relative="1" as="geometry">
            <mxPoint x="300" y="640" as="sourcePoint" />
            <mxPoint x="400" y="640" as="targetPoint" />
          </mxGeometry>
        </mxCell>
        <mxCell id="47v30y2UzKcgmQZoOv1H-26" value="" style="endArrow=none;dashed=1;html=1;fontFamily=Caveat;fontSource=https%3A%2F%2Ffonts.googleapis.com%2Fcss%3Ffamily%3DCaveat;fontSize=16;" parent="wFJk4p1SuyNsVBWyP0SX-1" edge="1">
          <mxGeometry width="50" height="50" relative="1" as="geometry">
            <mxPoint x="400" y="640" as="sourcePoint" />
            <mxPoint x="400" y="140" as="targetPoint" />
          </mxGeometry>
        </mxCell>
        <mxCell id="47v30y2UzKcgmQZoOv1H-28" value="" style="endArrow=none;dashed=1;html=1;fontFamily=Caveat;fontSource=https%3A%2F%2Ffonts.googleapis.com%2Fcss%3Ffamily%3DCaveat;fontSize=16;" parent="wFJk4p1SuyNsVBWyP0SX-1" edge="1">
          <mxGeometry width="50" height="50" relative="1" as="geometry">
            <mxPoint x="300" y="140" as="sourcePoint" />
            <mxPoint x="400" y="140" as="targetPoint" />
          </mxGeometry>
        </mxCell>
        <mxCell id="HfrlWxRxWhmKk7VCwK1o-0" value="" style="points=[[0.015,0.015,0],[0.985,0.015,0],[0.985,0.985,0],[0.015,0.985,0],[0.25,0,0],[0.5,0,0],[0.75,0,0],[1,0.25,0],[1,0.5,0],[1,0.75,0],[0.75,1,0],[0.5,1,0],[0.25,1,0],[0,0.75,0],[0,0.5,0],[0,0.25,0]];verticalLabelPosition=bottom;html=1;verticalAlign=top;aspect=fixed;align=center;pointerEvents=1;shape=mxgraph.cisco19.dns_server;strokeColor=#006EAF;fontFamily=Tahoma;fontSize=16;fillColor=#1ba1e2;fontColor=#ffffff;" parent="wFJk4p1SuyNsVBWyP0SX-1" vertex="1">
          <mxGeometry x="622.5" y="140" width="38.5" height="70" as="geometry" />
        </mxCell>
        <mxCell id="HfrlWxRxWhmKk7VCwK1o-2" value="DNS Server" style="text;html=1;align=center;verticalAlign=middle;resizable=0;points=[];autosize=1;strokeColor=none;fontSize=16;fontFamily=Caveat;" parent="wFJk4p1SuyNsVBWyP0SX-1" vertex="1">
          <mxGeometry x="601.75" y="220" width="80" height="20" as="geometry" />
        </mxCell>
        <mxCell id="HfrlWxRxWhmKk7VCwK1o-3" value="Upon failure, request&lt;br&gt;is sent to Internet" style="text;html=1;align=center;verticalAlign=middle;resizable=0;points=[];autosize=1;strokeColor=none;fontSize=16;fontFamily=Caveat;" parent="wFJk4p1SuyNsVBWyP0SX-1" vertex="1">
          <mxGeometry x="445" y="156" width="130" height="40" as="geometry" />
        </mxCell>
        <mxCell id="HfrlWxRxWhmKk7VCwK1o-6" value="" style="edgeStyle=none;rounded=0;orthogonalLoop=1;jettySize=auto;html=1;entryX=0;entryY=0.5;entryDx=0;entryDy=0;entryPerimeter=0;fontFamily=Caveat;fontSource=https%3A%2F%2Ffonts.googleapis.com%2Fcss%3Ffamily%3DCaveat;fontSize=16;endArrow=none;endFill=0;" parent="wFJk4p1SuyNsVBWyP0SX-1" source="MuWgB2L9fkodZF_woyt0-0" target="HfrlWxRxWhmKk7VCwK1o-3" edge="1">
          <mxGeometry relative="1" as="geometry">
            <mxPoint x="360" y="175" as="sourcePoint" />
            <mxPoint x="622.5" y="175" as="targetPoint" />
          </mxGeometry>
        </mxCell>
      </root>
    </mxGraphModel>
  </diagram>
  <diagram id="_eq7BIINdCSOqopyDRJq" name="DNS Lookup">
    <mxGraphModel dx="1102" dy="663" grid="1" gridSize="10" guides="1" tooltips="1" connect="1" arrows="1" fold="1" page="1" pageScale="1" pageWidth="1169" pageHeight="1654" math="0" shadow="0">
      <root>
        <mxCell id="nPYEbx2tS3N1pmSBS_ty-0" />
        <mxCell id="nPYEbx2tS3N1pmSBS_ty-1" parent="nPYEbx2tS3N1pmSBS_ty-0" />
        <mxCell id="UWEamVdI0DROVGeVCUI4-3" style="edgeStyle=orthogonalEdgeStyle;rounded=0;orthogonalLoop=1;jettySize=auto;html=1;entryX=0;entryY=0.5;entryDx=0;entryDy=0;entryPerimeter=0;endArrow=open;endFill=0;" parent="nPYEbx2tS3N1pmSBS_ty-1" source="UWEamVdI0DROVGeVCUI4-0" target="UWEamVdI0DROVGeVCUI4-2" edge="1">
          <mxGeometry relative="1" as="geometry" />
        </mxCell>
        <mxCell id="UWEamVdI0DROVGeVCUI4-0" value="" style="points=[[0.015,0.015,0],[0.985,0.015,0],[0.985,0.985,0],[0.015,0.985,0],[0.25,0,0],[0.5,0,0],[0.75,0,0],[1,0.25,0],[1,0.5,0],[1,0.75,0],[0.75,1,0],[0.5,1,0],[0.25,1,0],[0,0.75,0],[0,0.5,0],[0,0.25,0]];verticalLabelPosition=bottom;html=1;verticalAlign=top;aspect=fixed;align=center;pointerEvents=1;shape=mxgraph.cisco19.dns_server;strokeColor=#006EAF;fontFamily=Tahoma;fontSize=16;fillColor=#1ba1e2;fontColor=#ffffff;" parent="nPYEbx2tS3N1pmSBS_ty-1" vertex="1">
          <mxGeometry x="80" y="110" width="49.5" height="90" as="geometry" />
        </mxCell>
        <mxCell id="UWEamVdI0DROVGeVCUI4-1" value="&lt;font face=&quot;Bernina Sans Offc&quot; style=&quot;font-size: 16px&quot;&gt;DNS Servers - Internal Workings&lt;/font&gt;" style="text;html=1;align=center;verticalAlign=middle;resizable=0;points=[];autosize=1;strokeColor=none;" parent="nPYEbx2tS3N1pmSBS_ty-1" vertex="1">
          <mxGeometry x="280" y="40" width="250" height="20" as="geometry" />
        </mxCell>
        <mxCell id="UWEamVdI0DROVGeVCUI4-7" style="edgeStyle=orthogonalEdgeStyle;rounded=0;orthogonalLoop=1;jettySize=auto;html=1;exitX=0.7;exitY=0.1;exitDx=0;exitDy=0;exitPerimeter=0;fontFamily=Caveat;fontSource=https%3A%2F%2Ffonts.googleapis.com%2Fcss%3Ffamily%3DCaveat;fontSize=16;endArrow=open;endFill=0;entryX=0;entryY=0.55;entryDx=0;entryDy=0;entryPerimeter=0;" parent="nPYEbx2tS3N1pmSBS_ty-1" source="UWEamVdI0DROVGeVCUI4-2" target="UWEamVdI0DROVGeVCUI4-10" edge="1">
          <mxGeometry relative="1" as="geometry">
            <mxPoint x="590" y="123" as="targetPoint" />
          </mxGeometry>
        </mxCell>
        <mxCell id="UWEamVdI0DROVGeVCUI4-48" style="edgeStyle=none;rounded=0;orthogonalLoop=1;jettySize=auto;html=1;exitX=0;exitY=0.75;exitDx=0;exitDy=0;exitPerimeter=0;entryX=1;entryY=0.75;entryDx=0;entryDy=0;entryPerimeter=0;fontFamily=Bernina Sans Offc;fontSize=12;endArrow=open;endFill=0;" parent="nPYEbx2tS3N1pmSBS_ty-1" source="UWEamVdI0DROVGeVCUI4-2" target="UWEamVdI0DROVGeVCUI4-0" edge="1">
          <mxGeometry relative="1" as="geometry" />
        </mxCell>
        <mxCell id="UWEamVdI0DROVGeVCUI4-2" value="" style="shape=or;whiteSpace=wrap;html=1;sketch=1;" parent="nPYEbx2tS3N1pmSBS_ty-1" vertex="1">
          <mxGeometry x="320" y="115" width="60" height="80" as="geometry" />
        </mxCell>
        <mxCell id="UWEamVdI0DROVGeVCUI4-4" value="Recursive search" style="text;html=1;align=center;verticalAlign=middle;resizable=0;points=[];autosize=1;strokeColor=none;fontFamily=Caveat;fontSource=https%3A%2F%2Ffonts.googleapis.com%2Fcss%3Ffamily%3DCaveat;fontSize=16;" parent="nPYEbx2tS3N1pmSBS_ty-1" vertex="1">
          <mxGeometry x="170" y="130" width="110" height="20" as="geometry" />
        </mxCell>
        <mxCell id="UWEamVdI0DROVGeVCUI4-5" value="DNS&amp;nbsp; Query" style="text;html=1;align=center;verticalAlign=middle;resizable=0;points=[];autosize=1;strokeColor=none;fontSize=16;fontFamily=Caveat;" parent="nPYEbx2tS3N1pmSBS_ty-1" vertex="1">
          <mxGeometry x="190" y="115" width="80" height="20" as="geometry" />
        </mxCell>
        <mxCell id="UWEamVdI0DROVGeVCUI4-6" value="DNS Recursor" style="text;html=1;align=center;verticalAlign=middle;resizable=0;points=[];autosize=1;strokeColor=none;fontSize=16;fontFamily=Caveat;" parent="nPYEbx2tS3N1pmSBS_ty-1" vertex="1">
          <mxGeometry x="305" y="210" width="90" height="20" as="geometry" />
        </mxCell>
        <mxCell id="UWEamVdI0DROVGeVCUI4-19" style="edgeStyle=none;rounded=0;orthogonalLoop=1;jettySize=auto;html=1;exitX=0;exitY=1;exitDx=0;exitDy=0;fontFamily=Caveat;fontSource=https%3A%2F%2Ffonts.googleapis.com%2Fcss%3Ffamily%3DCaveat;fontSize=12;endArrow=open;endFill=0;entryX=0.983;entryY=0.3;entryDx=0;entryDy=0;entryPerimeter=0;" parent="nPYEbx2tS3N1pmSBS_ty-1" source="UWEamVdI0DROVGeVCUI4-10" target="UWEamVdI0DROVGeVCUI4-2" edge="1">
          <mxGeometry relative="1" as="geometry">
            <mxPoint x="390" y="141" as="targetPoint" />
          </mxGeometry>
        </mxCell>
        <mxCell id="UWEamVdI0DROVGeVCUI4-10" value="Name Server&amp;nbsp;" style="ellipse;whiteSpace=wrap;html=1;sketch=1;fontFamily=Caveat;fontSource=https%3A%2F%2Ffonts.googleapis.com%2Fcss%3Ffamily%3DCaveat;fontSize=16;" parent="nPYEbx2tS3N1pmSBS_ty-1" vertex="1">
          <mxGeometry x="530" y="90" width="75" height="60" as="geometry" />
        </mxCell>
        <mxCell id="UWEamVdI0DROVGeVCUI4-12" style="edgeStyle=orthogonalEdgeStyle;rounded=0;orthogonalLoop=1;jettySize=auto;html=1;exitX=1;exitY=0.663;exitDx=0;exitDy=0;exitPerimeter=0;fontFamily=Caveat;fontSource=https%3A%2F%2Ffonts.googleapis.com%2Fcss%3Ffamily%3DCaveat;fontSize=16;endArrow=open;endFill=0;entryX=0;entryY=0.55;entryDx=0;entryDy=0;entryPerimeter=0;" parent="nPYEbx2tS3N1pmSBS_ty-1" source="UWEamVdI0DROVGeVCUI4-2" target="UWEamVdI0DROVGeVCUI4-14" edge="1">
          <mxGeometry relative="1" as="geometry">
            <mxPoint x="706" y="168" as="targetPoint" />
            <mxPoint x="478" y="168" as="sourcePoint" />
          </mxGeometry>
        </mxCell>
        <mxCell id="UWEamVdI0DROVGeVCUI4-13" style="rounded=0;orthogonalLoop=1;jettySize=auto;html=1;exitX=0;exitY=1;exitDx=0;exitDy=0;fontFamily=Caveat;fontSource=https%3A%2F%2Ffonts.googleapis.com%2Fcss%3Ffamily%3DCaveat;fontSize=16;endArrow=open;endFill=0;" parent="nPYEbx2tS3N1pmSBS_ty-1" source="UWEamVdI0DROVGeVCUI4-14" edge="1">
          <mxGeometry relative="1" as="geometry">
            <mxPoint x="370" y="187" as="targetPoint" />
          </mxGeometry>
        </mxCell>
        <mxCell id="UWEamVdI0DROVGeVCUI4-14" value="Name Server&amp;nbsp;" style="ellipse;whiteSpace=wrap;html=1;sketch=1;fontFamily=Caveat;fontSource=https%3A%2F%2Ffonts.googleapis.com%2Fcss%3Ffamily%3DCaveat;fontSize=16;" parent="nPYEbx2tS3N1pmSBS_ty-1" vertex="1">
          <mxGeometry x="616" y="135" width="75" height="60" as="geometry" />
        </mxCell>
        <mxCell id="UWEamVdI0DROVGeVCUI4-15" value="Search for IP" style="text;html=1;align=center;verticalAlign=middle;resizable=0;points=[];autosize=1;strokeColor=none;fontSize=12;fontFamily=Caveat;" parent="nPYEbx2tS3N1pmSBS_ty-1" vertex="1">
          <mxGeometry x="405" y="100" width="70" height="20" as="geometry" />
        </mxCell>
        <mxCell id="UWEamVdI0DROVGeVCUI4-18" value="IP found" style="text;html=1;align=center;verticalAlign=middle;resizable=0;points=[];autosize=1;strokeColor=none;fontSize=12;fontFamily=Caveat;" parent="nPYEbx2tS3N1pmSBS_ty-1" vertex="1">
          <mxGeometry x="470" y="190" width="50" height="20" as="geometry" />
        </mxCell>
        <mxCell id="UWEamVdI0DROVGeVCUI4-21" value="IP not found" style="text;html=1;align=center;verticalAlign=middle;resizable=0;points=[];autosize=1;strokeColor=none;fontSize=12;fontFamily=Caveat;" parent="nPYEbx2tS3N1pmSBS_ty-1" vertex="1">
          <mxGeometry x="430" y="140" width="70" height="20" as="geometry" />
        </mxCell>
        <mxCell id="UWEamVdI0DROVGeVCUI4-22" value="&lt;div style=&quot;text-align: justify&quot;&gt;&lt;b style=&quot;font-family: &amp;#34;bernina sans offc&amp;#34;&quot;&gt;IP&lt;/b&gt;&lt;span style=&quot;font-family: &amp;#34;bernina sans offc&amp;#34;&quot;&gt; - Internet Protocol which is the unique name given to each website address.&lt;/span&gt;&lt;/div&gt;&lt;font face=&quot;Bernina Sans Offc&quot;&gt;&lt;div style=&quot;text-align: justify&quot;&gt;&lt;br&gt;&lt;/div&gt;&lt;b&gt;&lt;div style=&quot;text-align: justify&quot;&gt;&lt;b&gt;DNS Recurser&lt;/b&gt;&lt;span style=&quot;font-weight: normal&quot;&gt; - The purpose of a DNS query is to search multiple DNS servers on the internet until it finds the correct&lt;/span&gt;&lt;/div&gt;&lt;/b&gt;&lt;div style=&quot;text-align: justify&quot;&gt;&lt;span&gt;The IP address for the website. This type of search is called a recursive search. In this case, we call the ISP DNS servers DNS recurser.&lt;/span&gt;&lt;/div&gt;&lt;/font&gt;" style="text;html=1;align=left;verticalAlign=middle;resizable=0;points=[];autosize=1;strokeColor=none;fontSize=12;fontFamily=Caveat;" parent="nPYEbx2tS3N1pmSBS_ty-1" vertex="1">
          <mxGeometry x="60" y="250" width="720" height="60" as="geometry" />
        </mxCell>
        <mxCell id="UWEamVdI0DROVGeVCUI4-23" value="ISP DNS Server" style="text;html=1;align=center;verticalAlign=middle;resizable=0;points=[];autosize=1;strokeColor=none;fontSize=16;fontFamily=Caveat;" parent="nPYEbx2tS3N1pmSBS_ty-1" vertex="1">
          <mxGeometry x="49.75" y="210" width="110" height="20" as="geometry" />
        </mxCell>
        <mxCell id="UWEamVdI0DROVGeVCUI4-29" style="edgeStyle=none;rounded=0;orthogonalLoop=1;jettySize=auto;html=1;exitX=1;exitY=0.5;exitDx=0;exitDy=0;entryX=0;entryY=0.5;entryDx=0;entryDy=0;fontFamily=Caveat;fontSource=https%3A%2F%2Ffonts.googleapis.com%2Fcss%3Ffamily%3DCaveat;fontSize=16;endArrow=open;endFill=0;" parent="nPYEbx2tS3N1pmSBS_ty-1" source="UWEamVdI0DROVGeVCUI4-24" target="UWEamVdI0DROVGeVCUI4-26" edge="1">
          <mxGeometry relative="1" as="geometry" />
        </mxCell>
        <mxCell id="UWEamVdI0DROVGeVCUI4-30" style="edgeStyle=none;rounded=0;orthogonalLoop=1;jettySize=auto;html=1;exitX=1;exitY=1;exitDx=0;exitDy=0;entryX=0;entryY=0.25;entryDx=0;entryDy=0;fontFamily=Caveat;fontSource=https%3A%2F%2Ffonts.googleapis.com%2Fcss%3Ffamily%3DCaveat;fontSize=16;endArrow=open;endFill=0;startArrow=none;" parent="nPYEbx2tS3N1pmSBS_ty-1" source="UWEamVdI0DROVGeVCUI4-36" target="UWEamVdI0DROVGeVCUI4-27" edge="1">
          <mxGeometry relative="1" as="geometry" />
        </mxCell>
        <mxCell id="UWEamVdI0DROVGeVCUI4-24" value="Name Server" style="ellipse;whiteSpace=wrap;html=1;sketch=1;fontFamily=Caveat;fontSource=https%3A%2F%2Ffonts.googleapis.com%2Fcss%3Ffamily%3DCaveat;fontSize=16;" parent="nPYEbx2tS3N1pmSBS_ty-1" vertex="1">
          <mxGeometry x="70" y="360" width="75" height="60" as="geometry" />
        </mxCell>
        <mxCell id="UWEamVdI0DROVGeVCUI4-42" style="edgeStyle=none;rounded=0;orthogonalLoop=1;jettySize=auto;html=1;exitX=1;exitY=0.5;exitDx=0;exitDy=0;entryX=0;entryY=0;entryDx=0;entryDy=0;fontFamily=Bernina Sans Offc;fontSize=12;endArrow=open;endFill=0;" parent="nPYEbx2tS3N1pmSBS_ty-1" source="UWEamVdI0DROVGeVCUI4-25" target="UWEamVdI0DROVGeVCUI4-41" edge="1">
          <mxGeometry relative="1" as="geometry" />
        </mxCell>
        <mxCell id="UWEamVdI0DROVGeVCUI4-25" value="&lt;font style=&quot;font-size: 16px&quot;&gt;root-level&lt;/font&gt;" style="rounded=1;whiteSpace=wrap;html=1;sketch=1;fontFamily=Caveat;fontSource=https%3A%2F%2Ffonts.googleapis.com%2Fcss%3Ffamily%3DCaveat;fontSize=16;align=center;" parent="nPYEbx2tS3N1pmSBS_ty-1" vertex="1">
          <mxGeometry x="335" y="337.5" width="75" height="30" as="geometry" />
        </mxCell>
        <mxCell id="UWEamVdI0DROVGeVCUI4-43" style="edgeStyle=none;rounded=0;orthogonalLoop=1;jettySize=auto;html=1;exitX=1;exitY=0.5;exitDx=0;exitDy=0;entryX=0;entryY=0.5;entryDx=0;entryDy=0;fontFamily=Bernina Sans Offc;fontSize=12;endArrow=open;endFill=0;" parent="nPYEbx2tS3N1pmSBS_ty-1" source="UWEamVdI0DROVGeVCUI4-26" target="UWEamVdI0DROVGeVCUI4-41" edge="1">
          <mxGeometry relative="1" as="geometry" />
        </mxCell>
        <mxCell id="UWEamVdI0DROVGeVCUI4-26" value="&lt;p&gt;top-level&amp;nbsp;&lt;/p&gt;" style="rounded=1;whiteSpace=wrap;html=1;sketch=1;fontFamily=Caveat;fontSource=https%3A%2F%2Ffonts.googleapis.com%2Fcss%3Ffamily%3DCaveat;fontSize=16;align=center;" parent="nPYEbx2tS3N1pmSBS_ty-1" vertex="1">
          <mxGeometry x="335" y="390" width="70" height="30" as="geometry" />
        </mxCell>
        <mxCell id="UWEamVdI0DROVGeVCUI4-46" style="edgeStyle=none;rounded=0;orthogonalLoop=1;jettySize=auto;html=1;exitX=1;exitY=0.5;exitDx=0;exitDy=0;fontFamily=Bernina Sans Offc;fontSize=12;endArrow=open;endFill=0;" parent="nPYEbx2tS3N1pmSBS_ty-1" source="UWEamVdI0DROVGeVCUI4-27" edge="1">
          <mxGeometry relative="1" as="geometry">
            <mxPoint x="540" y="420" as="targetPoint" />
          </mxGeometry>
        </mxCell>
        <mxCell id="UWEamVdI0DROVGeVCUI4-27" value="second-level" style="rounded=1;whiteSpace=wrap;html=1;sketch=1;fontFamily=Caveat;fontSource=https%3A%2F%2Ffonts.googleapis.com%2Fcss%3Ffamily%3DCaveat;fontSize=16;align=center;" parent="nPYEbx2tS3N1pmSBS_ty-1" vertex="1">
          <mxGeometry x="335" y="450" width="70" height="30" as="geometry" />
        </mxCell>
        <mxCell id="UWEamVdI0DROVGeVCUI4-33" style="edgeStyle=none;rounded=0;orthogonalLoop=1;jettySize=auto;html=1;exitX=1;exitY=0.5;exitDx=0;exitDy=0;entryX=0;entryY=0.5;entryDx=0;entryDy=0;fontFamily=Caveat;fontSource=https%3A%2F%2Ffonts.googleapis.com%2Fcss%3Ffamily%3DCaveat;fontSize=16;endArrow=open;endFill=0;" parent="nPYEbx2tS3N1pmSBS_ty-1" source="UWEamVdI0DROVGeVCUI4-31" target="UWEamVdI0DROVGeVCUI4-25" edge="1">
          <mxGeometry relative="1" as="geometry" />
        </mxCell>
        <mxCell id="UWEamVdI0DROVGeVCUI4-31" value="NS1" style="rhombus;whiteSpace=wrap;html=1;sketch=1;fontFamily=Caveat;fontSource=https%3A%2F%2Ffonts.googleapis.com%2Fcss%3Ffamily%3DCaveat;fontSize=16;align=center;" parent="nPYEbx2tS3N1pmSBS_ty-1" vertex="1">
          <mxGeometry x="210" y="327.5" width="50" height="50" as="geometry" />
        </mxCell>
        <mxCell id="UWEamVdI0DROVGeVCUI4-32" value="" style="edgeStyle=none;rounded=0;orthogonalLoop=1;jettySize=auto;html=1;exitX=1;exitY=0;exitDx=0;exitDy=0;entryX=0;entryY=0.5;entryDx=0;entryDy=0;fontFamily=Caveat;fontSource=https%3A%2F%2Ffonts.googleapis.com%2Fcss%3Ffamily%3DCaveat;fontSize=16;endArrow=none;endFill=0;" parent="nPYEbx2tS3N1pmSBS_ty-1" source="UWEamVdI0DROVGeVCUI4-24" target="UWEamVdI0DROVGeVCUI4-31" edge="1">
          <mxGeometry relative="1" as="geometry">
            <mxPoint x="133.83794801479257" y="368.64490701503314" as="sourcePoint" />
            <mxPoint x="330" y="355" as="targetPoint" />
          </mxGeometry>
        </mxCell>
        <mxCell id="UWEamVdI0DROVGeVCUI4-34" style="edgeStyle=none;rounded=0;orthogonalLoop=1;jettySize=auto;html=1;exitX=0.25;exitY=1;exitDx=0;exitDy=0;fontFamily=Caveat;fontSource=https%3A%2F%2Ffonts.googleapis.com%2Fcss%3Ffamily%3DCaveat;fontSize=16;endArrow=open;endFill=0;" parent="nPYEbx2tS3N1pmSBS_ty-1" source="UWEamVdI0DROVGeVCUI4-25" target="UWEamVdI0DROVGeVCUI4-25" edge="1">
          <mxGeometry relative="1" as="geometry" />
        </mxCell>
        <mxCell id="UWEamVdI0DROVGeVCUI4-35" value="NS2" style="rhombus;whiteSpace=wrap;html=1;sketch=1;fontFamily=Caveat;fontSource=https%3A%2F%2Ffonts.googleapis.com%2Fcss%3Ffamily%3DCaveat;fontSize=16;align=center;" parent="nPYEbx2tS3N1pmSBS_ty-1" vertex="1">
          <mxGeometry x="240" y="377.5" width="50" height="50" as="geometry" />
        </mxCell>
        <mxCell id="UWEamVdI0DROVGeVCUI4-36" value="NS3" style="rhombus;whiteSpace=wrap;html=1;sketch=1;fontFamily=Caveat;fontSource=https%3A%2F%2Ffonts.googleapis.com%2Fcss%3Ffamily%3DCaveat;fontSize=16;align=center;" parent="nPYEbx2tS3N1pmSBS_ty-1" vertex="1">
          <mxGeometry x="180" y="410" width="50" height="50" as="geometry" />
        </mxCell>
        <mxCell id="UWEamVdI0DROVGeVCUI4-37" value="" style="edgeStyle=none;rounded=0;orthogonalLoop=1;jettySize=auto;html=1;exitX=1;exitY=1;exitDx=0;exitDy=0;entryX=0;entryY=0.25;entryDx=0;entryDy=0;fontFamily=Caveat;fontSource=https%3A%2F%2Ffonts.googleapis.com%2Fcss%3Ffamily%3DCaveat;fontSize=16;endArrow=none;endFill=0;" parent="nPYEbx2tS3N1pmSBS_ty-1" source="UWEamVdI0DROVGeVCUI4-24" target="UWEamVdI0DROVGeVCUI4-36" edge="1">
          <mxGeometry relative="1" as="geometry">
            <mxPoint x="133.83794801479257" y="411.3550929849671" as="sourcePoint" />
            <mxPoint x="330" y="477.5" as="targetPoint" />
          </mxGeometry>
        </mxCell>
        <mxCell id="UWEamVdI0DROVGeVCUI4-38" value="Domain (www.google.com)" style="swimlane;sketch=1;fontFamily=Caveat;fontSource=https%3A%2F%2Ffonts.googleapis.com%2Fcss%3Ffamily%3DCaveat;fontSize=16;align=center;" parent="nPYEbx2tS3N1pmSBS_ty-1" vertex="1">
          <mxGeometry x="660" y="352.5" width="230" height="112.5" as="geometry" />
        </mxCell>
        <mxCell id="UWEamVdI0DROVGeVCUI4-39" value="&lt;font face=&quot;Bernina Sans Offc&quot; style=&quot;font-size: 12px&quot;&gt;&lt;b&gt;root-level: .&lt;br&gt;Top Level:&lt;/b&gt; com/in/org&lt;br&gt;&lt;b&gt;Second-level:&lt;/b&gt; google/dynatrace&lt;br&gt;&lt;b&gt;Third-level:&lt;/b&gt; www/mail/engineering&lt;br&gt;&lt;/font&gt;" style="text;html=1;align=left;verticalAlign=middle;resizable=0;points=[];autosize=1;strokeColor=none;fontSize=16;fontFamily=Caveat;" parent="UWEamVdI0DROVGeVCUI4-38" vertex="1">
          <mxGeometry x="20" y="20" width="210" height="90" as="geometry" />
        </mxCell>
        <mxCell id="UWEamVdI0DROVGeVCUI4-40" value="NS - There will be nameservers for each domain level.&amp;nbsp;&lt;br style=&quot;font-size: 12px&quot;&gt;Once all levels of domains are found with their respective Nameservers, a complete IP address will be built. &lt;br&gt;This lookup process we also call it as DNS lookup." style="text;html=1;align=center;verticalAlign=middle;resizable=0;points=[];autosize=1;strokeColor=none;fontSize=12;fontFamily=Bernina Sans Offc;" parent="nPYEbx2tS3N1pmSBS_ty-1" vertex="1">
          <mxGeometry x="55" y="500" width="590" height="50" as="geometry" />
        </mxCell>
        <mxCell id="UWEamVdI0DROVGeVCUI4-41" value="third-level" style="rounded=1;whiteSpace=wrap;html=1;sketch=1;fontFamily=Caveat;fontSource=https%3A%2F%2Ffonts.googleapis.com%2Fcss%3Ffamily%3DCaveat;fontSize=16;align=center;" parent="nPYEbx2tS3N1pmSBS_ty-1" vertex="1">
          <mxGeometry x="535" y="387.5" width="85" height="42.5" as="geometry" />
        </mxCell>
        <mxCell id="UWEamVdI0DROVGeVCUI4-49" value="IP address" style="text;html=1;align=center;verticalAlign=middle;resizable=0;points=[];autosize=1;strokeColor=none;fontSize=12;fontFamily=Bernina Sans Offc;" parent="nPYEbx2tS3N1pmSBS_ty-1" vertex="1">
          <mxGeometry x="180" y="180" width="70" height="20" as="geometry" />
        </mxCell>
      </root>
    </mxGraphModel>
  </diagram>
  <diagram id="sY9klHorN3sCrXQA_g-h" name="TCP Connection">
    <mxGraphModel dx="1102" dy="663" grid="1" gridSize="10" guides="1" tooltips="1" connect="1" arrows="1" fold="1" page="1" pageScale="1" pageWidth="1169" pageHeight="1654" math="0" shadow="0">
      <root>
        <mxCell id="PARBZksj5hkgG-Ye0LVq-0" />
        <mxCell id="PARBZksj5hkgG-Ye0LVq-1" parent="PARBZksj5hkgG-Ye0LVq-0" />
        <mxCell id="8SOAa0fiOrAwf3xtzLwL-4" style="edgeStyle=orthogonalEdgeStyle;rounded=0;orthogonalLoop=1;jettySize=auto;html=1;fontFamily=Caveat;fontSource=https%3A%2F%2Ffonts.googleapis.com%2Fcss%3Ffamily%3DCaveat;fontSize=16;" parent="PARBZksj5hkgG-Ye0LVq-1" source="8SOAa0fiOrAwf3xtzLwL-0" target="8SOAa0fiOrAwf3xtzLwL-3" edge="1">
          <mxGeometry relative="1" as="geometry" />
        </mxCell>
        <mxCell id="8SOAa0fiOrAwf3xtzLwL-0" value="" style="points=[[0.015,0.015,0],[0.985,0.015,0],[0.985,0.985,0],[0.015,0.985,0],[0.25,0,0],[0.5,0,0],[0.75,0,0],[1,0.25,0],[1,0.5,0],[1,0.75,0],[0.75,1,0],[0.5,1,0],[0.25,1,0],[0,0.75,0],[0,0.5,0],[0,0.25,0]];verticalLabelPosition=bottom;html=1;verticalAlign=top;aspect=fixed;align=center;pointerEvents=1;shape=mxgraph.cisco19.dns_server;strokeColor=#006EAF;fontFamily=Caveat;fontSize=16;fillColor=#1ba1e2;fontColor=#ffffff;fontSource=https%3A%2F%2Ffonts.googleapis.com%2Fcss%3Ffamily%3DCaveat;" parent="PARBZksj5hkgG-Ye0LVq-1" vertex="1">
          <mxGeometry x="80" y="110" width="49.5" height="90" as="geometry" />
        </mxCell>
        <mxCell id="8SOAa0fiOrAwf3xtzLwL-11" style="edgeStyle=orthogonalEdgeStyle;rounded=0;orthogonalLoop=1;jettySize=auto;html=1;dashed=1;fontFamily=Caveat;fontSource=https%3A%2F%2Ffonts.googleapis.com%2Fcss%3Ffamily%3DCaveat;fontSize=16;startArrow=open;startFill=0;endArrow=open;endFill=0;" parent="PARBZksj5hkgG-Ye0LVq-1" source="8SOAa0fiOrAwf3xtzLwL-3" target="8SOAa0fiOrAwf3xtzLwL-9" edge="1">
          <mxGeometry relative="1" as="geometry" />
        </mxCell>
        <mxCell id="8SOAa0fiOrAwf3xtzLwL-3" value="" style="dashed=0;outlineConnect=0;html=1;align=center;labelPosition=center;verticalLabelPosition=bottom;verticalAlign=top;shape=mxgraph.weblogos.chrome;sketch=1;fontFamily=Caveat;fontSource=https%3A%2F%2Ffonts.googleapis.com%2Fcss%3Ffamily%3DCaveat;fontSize=16;" parent="PARBZksj5hkgG-Ye0LVq-1" vertex="1">
          <mxGeometry x="230" y="117.3" width="74.8" height="75.4" as="geometry" />
        </mxCell>
        <mxCell id="8SOAa0fiOrAwf3xtzLwL-5" value="DNS Server" style="text;html=1;align=center;verticalAlign=middle;resizable=0;points=[];autosize=1;strokeColor=none;fontFamily=Caveat;fontSource=https%3A%2F%2Ffonts.googleapis.com%2Fcss%3Ffamily%3DCaveat;fontSize=16;" parent="PARBZksj5hkgG-Ye0LVq-1" vertex="1">
          <mxGeometry x="64.75" y="210" width="80" height="20" as="geometry" />
        </mxCell>
        <mxCell id="8SOAa0fiOrAwf3xtzLwL-6" value="Browser" style="text;html=1;align=center;verticalAlign=middle;resizable=0;points=[];autosize=1;strokeColor=none;fontFamily=Caveat;fontSource=https%3A%2F%2Ffonts.googleapis.com%2Fcss%3Ffamily%3DCaveat;fontSize=16;" parent="PARBZksj5hkgG-Ye0LVq-1" vertex="1">
          <mxGeometry x="237.4" y="210" width="60" height="20" as="geometry" />
        </mxCell>
        <mxCell id="8SOAa0fiOrAwf3xtzLwL-7" value="IP Address" style="text;html=1;align=center;verticalAlign=middle;resizable=0;points=[];autosize=1;strokeColor=none;fontFamily=Caveat;fontSource=https%3A%2F%2Ffonts.googleapis.com%2Fcss%3Ffamily%3DCaveat;fontSize=16;" parent="PARBZksj5hkgG-Ye0LVq-1" vertex="1">
          <mxGeometry x="139.75" y="130" width="80" height="20" as="geometry" />
        </mxCell>
        <mxCell id="8SOAa0fiOrAwf3xtzLwL-9" value="" style="aspect=fixed;perimeter=ellipsePerimeter;html=1;align=center;shadow=0;dashed=0;spacingTop=3;image;image=img/lib/active_directory/generic_server.svg;sketch=1;fontFamily=Caveat;fontSource=https%3A%2F%2Ffonts.googleapis.com%2Fcss%3Ffamily%3DCaveat;fontSize=16;" parent="PARBZksj5hkgG-Ye0LVq-1" vertex="1">
          <mxGeometry x="760" y="102.85000000000001" width="58.41" height="104.3" as="geometry" />
        </mxCell>
        <mxCell id="8SOAa0fiOrAwf3xtzLwL-10" value="Server of the IP that is found" style="text;html=1;align=center;verticalAlign=middle;resizable=0;points=[];autosize=1;strokeColor=none;fontFamily=Caveat;fontSource=https%3A%2F%2Ffonts.googleapis.com%2Fcss%3Ffamily%3DCaveat;fontSize=16;" parent="PARBZksj5hkgG-Ye0LVq-1" vertex="1">
          <mxGeometry x="715" y="210" width="180" height="20" as="geometry" />
        </mxCell>
        <mxCell id="8SOAa0fiOrAwf3xtzLwL-12" value="TCP/IP Connection with three-way handshake" style="text;html=1;align=center;verticalAlign=middle;resizable=0;points=[];autosize=1;strokeColor=none;fontFamily=Caveat;fontSource=https%3A%2F%2Ffonts.googleapis.com%2Fcss%3Ffamily%3DCaveat;fontSize=16;" parent="PARBZksj5hkgG-Ye0LVq-1" vertex="1">
          <mxGeometry x="385" y="130" width="270" height="20" as="geometry" />
        </mxCell>
        <mxCell id="8SOAa0fiOrAwf3xtzLwL-13" style="edgeStyle=orthogonalEdgeStyle;rounded=0;orthogonalLoop=1;jettySize=auto;html=1;dashed=1;endArrow=open;endFill=0;" parent="PARBZksj5hkgG-Ye0LVq-1" source="8SOAa0fiOrAwf3xtzLwL-14" target="8SOAa0fiOrAwf3xtzLwL-16" edge="1">
          <mxGeometry relative="1" as="geometry" />
        </mxCell>
        <mxCell id="8SOAa0fiOrAwf3xtzLwL-14" value="" style="dashed=0;outlineConnect=0;html=1;align=center;labelPosition=center;verticalLabelPosition=bottom;verticalAlign=top;shape=mxgraph.weblogos.chrome;sketch=1;" parent="PARBZksj5hkgG-Ye0LVq-1" vertex="1">
          <mxGeometry x="158.41" y="314.45" width="74.8" height="75.4" as="geometry" />
        </mxCell>
        <mxCell id="8SOAa0fiOrAwf3xtzLwL-15" value="Browser" style="text;html=1;align=center;verticalAlign=middle;resizable=0;points=[];autosize=1;strokeColor=none;fontFamily=Caveat;fontSource=https%3A%2F%2Ffonts.googleapis.com%2Fcss%3Ffamily%3DCaveat;" parent="PARBZksj5hkgG-Ye0LVq-1" vertex="1">
          <mxGeometry x="170.81" y="407.15" width="50" height="20" as="geometry" />
        </mxCell>
        <mxCell id="8SOAa0fiOrAwf3xtzLwL-16" value="" style="aspect=fixed;perimeter=ellipsePerimeter;html=1;align=center;shadow=0;dashed=0;spacingTop=3;image;image=img/lib/active_directory/generic_server.svg;sketch=1;" parent="PARBZksj5hkgG-Ye0LVq-1" vertex="1">
          <mxGeometry x="688.41" y="300" width="58.41" height="104.3" as="geometry" />
        </mxCell>
        <mxCell id="8SOAa0fiOrAwf3xtzLwL-17" value="Server of the IP that is found" style="text;html=1;align=center;verticalAlign=middle;resizable=0;points=[];autosize=1;strokeColor=none;fontFamily=Caveat;fontSource=https%3A%2F%2Ffonts.googleapis.com%2Fcss%3Ffamily%3DCaveat;" parent="PARBZksj5hkgG-Ye0LVq-1" vertex="1">
          <mxGeometry x="647.61" y="407.15" width="140" height="20" as="geometry" />
        </mxCell>
        <mxCell id="8SOAa0fiOrAwf3xtzLwL-18" value="&lt;span style=&quot;color: rgb(41, 41, 41); letter-spacing: -0.063px; background-color: rgb(255, 255, 255);&quot;&gt;&lt;font style=&quot;font-size: 12px&quot;&gt;The client machine sends a SYN packet to the server &lt;br&gt;over the internet, asking if it is open for new connections.&lt;/font&gt;&lt;/span&gt;" style="text;html=1;align=center;verticalAlign=middle;resizable=0;points=[];autosize=1;strokeColor=none;fontFamily=Bernina Sans Offc;" parent="PARBZksj5hkgG-Ye0LVq-1" vertex="1">
          <mxGeometry x="297.4" y="337.15" width="310" height="30" as="geometry" />
        </mxCell>
        <mxCell id="8SOAa0fiOrAwf3xtzLwL-19" style="edgeStyle=orthogonalEdgeStyle;rounded=0;orthogonalLoop=1;jettySize=auto;html=1;dashed=1;startArrow=open;startFill=0;endArrow=none;endFill=0;" parent="PARBZksj5hkgG-Ye0LVq-1" source="8SOAa0fiOrAwf3xtzLwL-20" target="8SOAa0fiOrAwf3xtzLwL-22" edge="1">
          <mxGeometry relative="1" as="geometry" />
        </mxCell>
        <mxCell id="8SOAa0fiOrAwf3xtzLwL-20" value="" style="dashed=0;outlineConnect=0;html=1;align=center;labelPosition=center;verticalLabelPosition=bottom;verticalAlign=top;shape=mxgraph.weblogos.chrome;sketch=1;" parent="PARBZksj5hkgG-Ye0LVq-1" vertex="1">
          <mxGeometry x="158.41" y="454.45" width="74.8" height="75.4" as="geometry" />
        </mxCell>
        <mxCell id="8SOAa0fiOrAwf3xtzLwL-21" value="Browser" style="text;html=1;align=center;verticalAlign=middle;resizable=0;points=[];autosize=1;strokeColor=none;fontFamily=Caveat;fontSource=https%3A%2F%2Ffonts.googleapis.com%2Fcss%3Ffamily%3DCaveat;" parent="PARBZksj5hkgG-Ye0LVq-1" vertex="1">
          <mxGeometry x="170.81" y="547.15" width="50" height="20" as="geometry" />
        </mxCell>
        <mxCell id="8SOAa0fiOrAwf3xtzLwL-22" value="" style="aspect=fixed;perimeter=ellipsePerimeter;html=1;align=center;shadow=0;dashed=0;spacingTop=3;image;image=img/lib/active_directory/generic_server.svg;sketch=1;" parent="PARBZksj5hkgG-Ye0LVq-1" vertex="1">
          <mxGeometry x="688.41" y="440" width="58.41" height="104.3" as="geometry" />
        </mxCell>
        <mxCell id="8SOAa0fiOrAwf3xtzLwL-23" value="Server of the IP that is found" style="text;html=1;align=center;verticalAlign=middle;resizable=0;points=[];autosize=1;strokeColor=none;fontFamily=Caveat;fontSource=https%3A%2F%2Ffonts.googleapis.com%2Fcss%3Ffamily%3DCaveat;" parent="PARBZksj5hkgG-Ye0LVq-1" vertex="1">
          <mxGeometry x="647.61" y="547.15" width="140" height="20" as="geometry" />
        </mxCell>
        <mxCell id="8SOAa0fiOrAwf3xtzLwL-25" value="&lt;span style=&quot;color: rgb(41 , 41 , 41) ; letter-spacing: -0.063px ; background-color: rgb(255 , 255 , 255)&quot;&gt;If the server has open ports that can accept and initiate &lt;br&gt;new connections, it’ll respond with an ACKnowledgment &lt;br&gt;of the SYN packet using a SYN/ACK packet.&lt;/span&gt;" style="text;html=1;align=center;verticalAlign=middle;resizable=0;points=[];autosize=1;strokeColor=none;fontFamily=Bernina Sans Offc;" parent="PARBZksj5hkgG-Ye0LVq-1" vertex="1">
          <mxGeometry x="299.8" y="467.15" width="320" height="50" as="geometry" />
        </mxCell>
        <mxCell id="8SOAa0fiOrAwf3xtzLwL-31" style="rounded=0;orthogonalLoop=1;jettySize=auto;html=1;dashed=1;startArrow=none;startFill=0;endArrow=open;endFill=0;" parent="PARBZksj5hkgG-Ye0LVq-1" source="8SOAa0fiOrAwf3xtzLwL-36" target="8SOAa0fiOrAwf3xtzLwL-34" edge="1">
          <mxGeometry relative="1" as="geometry" />
        </mxCell>
        <mxCell id="8SOAa0fiOrAwf3xtzLwL-32" value="" style="dashed=0;outlineConnect=0;html=1;align=center;labelPosition=center;verticalLabelPosition=bottom;verticalAlign=top;shape=mxgraph.weblogos.chrome;sketch=1;" parent="PARBZksj5hkgG-Ye0LVq-1" vertex="1">
          <mxGeometry x="158.41" y="594.45" width="74.8" height="75.4" as="geometry" />
        </mxCell>
        <mxCell id="8SOAa0fiOrAwf3xtzLwL-33" value="Browser" style="text;html=1;align=center;verticalAlign=middle;resizable=0;points=[];autosize=1;strokeColor=none;fontFamily=Caveat;fontSource=https%3A%2F%2Ffonts.googleapis.com%2Fcss%3Ffamily%3DCaveat;" parent="PARBZksj5hkgG-Ye0LVq-1" vertex="1">
          <mxGeometry x="170.81" y="687.15" width="50" height="20" as="geometry" />
        </mxCell>
        <mxCell id="8SOAa0fiOrAwf3xtzLwL-34" value="" style="aspect=fixed;perimeter=ellipsePerimeter;html=1;align=center;shadow=0;dashed=0;spacingTop=3;image;image=img/lib/active_directory/generic_server.svg;sketch=1;" parent="PARBZksj5hkgG-Ye0LVq-1" vertex="1">
          <mxGeometry x="688.41" y="580" width="58.41" height="104.3" as="geometry" />
        </mxCell>
        <mxCell id="8SOAa0fiOrAwf3xtzLwL-35" value="Server of the IP that is found" style="text;html=1;align=center;verticalAlign=middle;resizable=0;points=[];autosize=1;strokeColor=none;fontFamily=Caveat;fontSource=https%3A%2F%2Ffonts.googleapis.com%2Fcss%3Ffamily%3DCaveat;" parent="PARBZksj5hkgG-Ye0LVq-1" vertex="1">
          <mxGeometry x="647.61" y="687.15" width="140" height="20" as="geometry" />
        </mxCell>
        <mxCell id="8SOAa0fiOrAwf3xtzLwL-36" value="&lt;font color=&quot;#292929&quot;&gt;&lt;span style=&quot;letter-spacing: -0.063px&quot;&gt;The browser will receive the SYN/ACK packet from the server&lt;br&gt;and will acknowledge it by sending an ACK packet.&lt;/span&gt;&lt;/font&gt;" style="text;html=1;align=center;verticalAlign=middle;resizable=0;points=[];autosize=1;strokeColor=none;fontFamily=Bernina Sans Offc;" parent="PARBZksj5hkgG-Ye0LVq-1" vertex="1">
          <mxGeometry x="277.61" y="620" width="340" height="30" as="geometry" />
        </mxCell>
        <mxCell id="8SOAa0fiOrAwf3xtzLwL-37" value="" style="rounded=0;orthogonalLoop=1;jettySize=auto;html=1;dashed=1;startArrow=none;startFill=0;endArrow=none;endFill=0;" parent="PARBZksj5hkgG-Ye0LVq-1" source="8SOAa0fiOrAwf3xtzLwL-32" target="8SOAa0fiOrAwf3xtzLwL-36" edge="1">
          <mxGeometry relative="1" as="geometry">
            <mxPoint x="233.21000000000004" y="632.2" as="sourcePoint" />
            <mxPoint x="688.4100134232813" y="632.2" as="targetPoint" />
          </mxGeometry>
        </mxCell>
        <mxCell id="8SOAa0fiOrAwf3xtzLwL-38" value="&lt;font face=&quot;Bernina Sans Offc&quot;&gt;Three-way Handshake to establish TCP connection&lt;/font&gt;" style="text;html=1;align=center;verticalAlign=middle;resizable=0;points=[];autosize=1;strokeColor=none;fontSize=16;fontFamily=Caveat;" parent="PARBZksj5hkgG-Ye0LVq-1" vertex="1">
          <mxGeometry x="158.41000000000003" y="260" width="380" height="20" as="geometry" />
        </mxCell>
        <mxCell id="8SOAa0fiOrAwf3xtzLwL-39" value="&lt;h1&gt;&lt;font face=&quot;Bernina Sans Offc&quot; style=&quot;font-weight: normal ; font-size: 24px&quot;&gt;Establishing TCP/IP Connection&lt;/font&gt;&lt;/h1&gt;" style="text;html=1;align=center;verticalAlign=middle;resizable=0;points=[];autosize=1;strokeColor=none;fontSize=16;fontFamily=Caveat;" parent="PARBZksj5hkgG-Ye0LVq-1" vertex="1">
          <mxGeometry x="257.61" y="20" width="350" height="70" as="geometry" />
        </mxCell>
        <mxCell id="8SOAa0fiOrAwf3xtzLwL-40" value="SYN - Synchronize" style="text;html=1;align=center;verticalAlign=middle;resizable=0;points=[];autosize=1;strokeColor=none;fontSize=16;fontFamily=Caveat;rotation=-90;" parent="PARBZksj5hkgG-Ye0LVq-1" vertex="1">
          <mxGeometry x="64.75" y="347.15" width="120" height="20" as="geometry" />
        </mxCell>
      </root>
    </mxGraphModel>
  </diagram>
  <diagram id="szGXa2Npyce7MAHlQAQJ" name="HTTP request">
    <mxGraphModel dx="1102" dy="663" grid="1" gridSize="10" guides="1" tooltips="1" connect="1" arrows="1" fold="1" page="1" pageScale="1" pageWidth="1169" pageHeight="1654" math="0" shadow="0">
      <root>
        <mxCell id="G8Q9sJ8DLiGU8837OhOd-0" />
        <mxCell id="G8Q9sJ8DLiGU8837OhOd-1" parent="G8Q9sJ8DLiGU8837OhOd-0" />
        <mxCell id="LwGpSFiy7_9ZWBkNTmKJ-8" style="edgeStyle=orthogonalEdgeStyle;rounded=0;orthogonalLoop=1;jettySize=auto;html=1;fontSize=16;" edge="1" parent="G8Q9sJ8DLiGU8837OhOd-1" source="LwGpSFiy7_9ZWBkNTmKJ-1">
          <mxGeometry relative="1" as="geometry">
            <mxPoint x="147.4000000000001" y="210" as="targetPoint" />
          </mxGeometry>
        </mxCell>
        <mxCell id="LwGpSFiy7_9ZWBkNTmKJ-37" style="edgeStyle=orthogonalEdgeStyle;rounded=0;orthogonalLoop=1;jettySize=auto;html=1;fontFamily=Bernina Sans Offc;fontSize=16;endArrow=open;endFill=0;dashed=1;" edge="1" parent="G8Q9sJ8DLiGU8837OhOd-1" source="LwGpSFiy7_9ZWBkNTmKJ-1" target="LwGpSFiy7_9ZWBkNTmKJ-3">
          <mxGeometry relative="1" as="geometry" />
        </mxCell>
        <mxCell id="LwGpSFiy7_9ZWBkNTmKJ-1" value="" style="dashed=0;outlineConnect=0;html=1;align=center;labelPosition=center;verticalLabelPosition=bottom;verticalAlign=top;shape=mxgraph.weblogos.chrome;sketch=1;" vertex="1" parent="G8Q9sJ8DLiGU8837OhOd-1">
          <mxGeometry x="110" y="84.45000000000005" width="74.8" height="75.4" as="geometry" />
        </mxCell>
        <mxCell id="LwGpSFiy7_9ZWBkNTmKJ-2" value="Browser" style="text;html=1;align=center;verticalAlign=middle;resizable=0;points=[];autosize=1;strokeColor=none;fontFamily=Caveat;fontSource=https%3A%2F%2Ffonts.googleapis.com%2Fcss%3Ffamily%3DCaveat;fontSize=16;" vertex="1" parent="G8Q9sJ8DLiGU8837OhOd-1">
          <mxGeometry x="117.4" y="49.99999999999997" width="60" height="20" as="geometry" />
        </mxCell>
        <mxCell id="LwGpSFiy7_9ZWBkNTmKJ-3" value="" style="aspect=fixed;perimeter=ellipsePerimeter;html=1;align=center;shadow=0;dashed=0;spacingTop=3;image;image=img/lib/active_directory/generic_server.svg;sketch=1;" vertex="1" parent="G8Q9sJ8DLiGU8837OhOd-1">
          <mxGeometry x="890.8" y="70" width="58.41" height="104.3" as="geometry" />
        </mxCell>
        <mxCell id="LwGpSFiy7_9ZWBkNTmKJ-4" value="Server of the IP that is found" style="text;html=1;align=center;verticalAlign=middle;resizable=0;points=[];autosize=1;strokeColor=none;fontFamily=Caveat;fontSource=https%3A%2F%2Ffonts.googleapis.com%2Fcss%3Ffamily%3DCaveat;fontSize=16;" vertex="1" parent="G8Q9sJ8DLiGU8837OhOd-1">
          <mxGeometry x="840" y="49.999999999999986" width="180" height="20" as="geometry" />
        </mxCell>
        <mxCell id="LwGpSFiy7_9ZWBkNTmKJ-10" style="rounded=0;orthogonalLoop=1;jettySize=auto;html=1;fontSize=16;entryX=0;entryY=0.5;entryDx=0;entryDy=0;endArrow=none;endFill=0;" edge="1" parent="G8Q9sJ8DLiGU8837OhOd-1" source="LwGpSFiy7_9ZWBkNTmKJ-9" target="LwGpSFiy7_9ZWBkNTmKJ-11">
          <mxGeometry relative="1" as="geometry">
            <mxPoint x="310" y="230" as="targetPoint" />
          </mxGeometry>
        </mxCell>
        <mxCell id="LwGpSFiy7_9ZWBkNTmKJ-9" value="&lt;font face=&quot;Caveat&quot; data-font-src=&quot;https://fonts.googleapis.com/css?family=Caveat&quot;&gt;GET/POST request&lt;/font&gt;" style="text;html=1;align=center;verticalAlign=middle;resizable=0;points=[];autosize=1;strokeColor=none;fontSize=16;" vertex="1" parent="G8Q9sJ8DLiGU8837OhOd-1">
          <mxGeometry x="87.4" y="215" width="120" height="30" as="geometry" />
        </mxCell>
        <mxCell id="LwGpSFiy7_9ZWBkNTmKJ-26" style="rounded=0;orthogonalLoop=1;jettySize=auto;html=1;fontFamily=Caveat;fontSource=https%3A%2F%2Ffonts.googleapis.com%2Fcss%3Ffamily%3DCaveat;fontSize=16;endArrow=none;endFill=0;" edge="1" parent="G8Q9sJ8DLiGU8837OhOd-1" source="LwGpSFiy7_9ZWBkNTmKJ-11" target="LwGpSFiy7_9ZWBkNTmKJ-25">
          <mxGeometry relative="1" as="geometry" />
        </mxCell>
        <mxCell id="LwGpSFiy7_9ZWBkNTmKJ-11" value="&lt;font face=&quot;Caveat&quot; data-font-src=&quot;https://fonts.googleapis.com/css?family=Caveat&quot;&gt;Additional Headers&lt;/font&gt;" style="rounded=1;whiteSpace=wrap;html=1;fontSize=16;" vertex="1" parent="G8Q9sJ8DLiGU8837OhOd-1">
          <mxGeometry x="392.7" y="200" width="120" height="60" as="geometry" />
        </mxCell>
        <mxCell id="LwGpSFiy7_9ZWBkNTmKJ-13" value="" style="shape=image;html=1;verticalAlign=top;verticalLabelPosition=bottom;labelBackgroundColor=#ffffff;imageAspect=0;aspect=fixed;image=https://cdn0.iconfinder.com/data/icons/security-double-colour-blue-black-vol-4/52/spy__person__agent__security-128.png;fontSize=16;" vertex="1" parent="G8Q9sJ8DLiGU8837OhOd-1">
          <mxGeometry x="270" y="290" width="60" height="60" as="geometry" />
        </mxCell>
        <mxCell id="LwGpSFiy7_9ZWBkNTmKJ-14" value="User-agent Header" style="text;html=1;align=center;verticalAlign=middle;resizable=0;points=[];autosize=1;strokeColor=none;fontSize=16;fontFamily=Caveat;fontSource=https%3A%2F%2Ffonts.googleapis.com%2Fcss%3Ffamily%3DCaveat;" vertex="1" parent="G8Q9sJ8DLiGU8837OhOd-1">
          <mxGeometry x="240" y="360" width="120" height="20" as="geometry" />
        </mxCell>
        <mxCell id="LwGpSFiy7_9ZWBkNTmKJ-15" value="" style="shape=image;html=1;verticalAlign=top;verticalLabelPosition=bottom;labelBackgroundColor=#ffffff;imageAspect=0;aspect=fixed;image=https://cdn0.iconfinder.com/data/icons/essentials-9/128/_Tick-128.png;fontFamily=Caveat;fontSource=https%3A%2F%2Ffonts.googleapis.com%2Fcss%3Ffamily%3DCaveat;fontSize=16;" vertex="1" parent="G8Q9sJ8DLiGU8837OhOd-1">
          <mxGeometry x="425.2" y="295" width="55" height="55" as="geometry" />
        </mxCell>
        <mxCell id="LwGpSFiy7_9ZWBkNTmKJ-17" value="Accept Header" style="text;html=1;align=center;verticalAlign=middle;resizable=0;points=[];autosize=1;strokeColor=none;fontSize=16;fontFamily=Caveat;" vertex="1" parent="G8Q9sJ8DLiGU8837OhOd-1">
          <mxGeometry x="407.7" y="360" width="90" height="20" as="geometry" />
        </mxCell>
        <mxCell id="LwGpSFiy7_9ZWBkNTmKJ-30" style="edgeStyle=none;rounded=0;orthogonalLoop=1;jettySize=auto;html=1;entryX=0.5;entryY=1.095;entryDx=0;entryDy=0;entryPerimeter=0;fontFamily=Bernina Sans Offc;fontSize=12;endArrow=open;endFill=0;" edge="1" parent="G8Q9sJ8DLiGU8837OhOd-1" source="LwGpSFiy7_9ZWBkNTmKJ-18" target="LwGpSFiy7_9ZWBkNTmKJ-29">
          <mxGeometry relative="1" as="geometry" />
        </mxCell>
        <mxCell id="LwGpSFiy7_9ZWBkNTmKJ-18" value="" style="aspect=fixed;perimeter=ellipsePerimeter;html=1;align=center;shadow=0;dashed=0;fontColor=#4277BB;labelBackgroundColor=#ffffff;fontSize=12;spacingTop=3;image;image=img/lib/ibm/vpc/VPNConnection.svg;fontFamily=Caveat;fontSource=https%3A%2F%2Ffonts.googleapis.com%2Fcss%3Ffamily%3DCaveat;" vertex="1" parent="G8Q9sJ8DLiGU8837OhOd-1">
          <mxGeometry x="565.2" y="290" width="60" height="60" as="geometry" />
        </mxCell>
        <mxCell id="LwGpSFiy7_9ZWBkNTmKJ-19" value="Connection Headers" style="text;html=1;align=center;verticalAlign=middle;resizable=0;points=[];autosize=1;strokeColor=none;fontSize=16;fontFamily=Caveat;" vertex="1" parent="G8Q9sJ8DLiGU8837OhOd-1">
          <mxGeometry x="535.2" y="360" width="120" height="20" as="geometry" />
        </mxCell>
        <mxCell id="LwGpSFiy7_9ZWBkNTmKJ-20" value="" style="endArrow=none;dashed=1;html=1;dashPattern=1 3;strokeWidth=2;fontFamily=Caveat;fontSource=https%3A%2F%2Ffonts.googleapis.com%2Fcss%3Ffamily%3DCaveat;fontSize=16;" edge="1" parent="G8Q9sJ8DLiGU8837OhOd-1">
          <mxGeometry width="50" height="50" relative="1" as="geometry">
            <mxPoint x="240" y="400" as="sourcePoint" />
            <mxPoint x="240" y="160" as="targetPoint" />
          </mxGeometry>
        </mxCell>
        <mxCell id="LwGpSFiy7_9ZWBkNTmKJ-21" value="" style="endArrow=none;dashed=1;html=1;dashPattern=1 3;strokeWidth=2;fontFamily=Caveat;fontSource=https%3A%2F%2Ffonts.googleapis.com%2Fcss%3Ffamily%3DCaveat;fontSize=16;" edge="1" parent="G8Q9sJ8DLiGU8837OhOd-1">
          <mxGeometry width="50" height="50" relative="1" as="geometry">
            <mxPoint x="240" y="400" as="sourcePoint" />
            <mxPoint x="680" y="400" as="targetPoint" />
          </mxGeometry>
        </mxCell>
        <mxCell id="LwGpSFiy7_9ZWBkNTmKJ-22" value="" style="endArrow=none;dashed=1;html=1;dashPattern=1 3;strokeWidth=2;fontFamily=Caveat;fontSource=https%3A%2F%2Ffonts.googleapis.com%2Fcss%3Ffamily%3DCaveat;fontSize=16;" edge="1" parent="G8Q9sJ8DLiGU8837OhOd-1">
          <mxGeometry width="50" height="50" relative="1" as="geometry">
            <mxPoint x="680" y="400" as="sourcePoint" />
            <mxPoint x="680" y="160" as="targetPoint" />
          </mxGeometry>
        </mxCell>
        <mxCell id="LwGpSFiy7_9ZWBkNTmKJ-23" value="" style="endArrow=none;dashed=1;html=1;dashPattern=1 3;strokeWidth=2;fontFamily=Caveat;fontSource=https%3A%2F%2Ffonts.googleapis.com%2Fcss%3Ffamily%3DCaveat;fontSize=16;" edge="1" parent="G8Q9sJ8DLiGU8837OhOd-1">
          <mxGeometry width="50" height="50" relative="1" as="geometry">
            <mxPoint x="240" y="160" as="sourcePoint" />
            <mxPoint x="680" y="160" as="targetPoint" />
          </mxGeometry>
        </mxCell>
        <mxCell id="LwGpSFiy7_9ZWBkNTmKJ-34" style="edgeStyle=orthogonalEdgeStyle;rounded=0;orthogonalLoop=1;jettySize=auto;html=1;fontFamily=Bernina Sans Offc;fontSize=16;endArrow=open;endFill=0;entryX=0.5;entryY=1;entryDx=0;entryDy=0;" edge="1" parent="G8Q9sJ8DLiGU8837OhOd-1" source="LwGpSFiy7_9ZWBkNTmKJ-25" target="LwGpSFiy7_9ZWBkNTmKJ-3">
          <mxGeometry relative="1" as="geometry">
            <mxPoint x="920" y="230" as="targetPoint" />
            <Array as="points">
              <mxPoint x="920" y="230" />
            </Array>
          </mxGeometry>
        </mxCell>
        <mxCell id="LwGpSFiy7_9ZWBkNTmKJ-25" value="" style="shape=image;html=1;verticalAlign=top;verticalLabelPosition=bottom;labelBackgroundColor=#ffffff;imageAspect=0;aspect=fixed;image=https://cdn1.iconfinder.com/data/icons/So_Sweet/100/cookies.png;fontFamily=Caveat;fontSource=https%3A%2F%2Ffonts.googleapis.com%2Fcss%3Ffamily%3DCaveat;fontSize=16;" vertex="1" parent="G8Q9sJ8DLiGU8837OhOd-1">
          <mxGeometry x="710" y="190" width="80" height="80" as="geometry" />
        </mxCell>
        <mxCell id="LwGpSFiy7_9ZWBkNTmKJ-27" value="&lt;span style=&quot;color: rgb(41 , 41 , 41) ; font-size: 12px ; letter-spacing: -0.063px ; background-color: rgb(255 , 255 , 255)&quot;&gt;If you’re entering credentials or &lt;br&gt;submitting a form, this could be &lt;br&gt;a POST request&lt;/span&gt;" style="text;html=1;align=center;verticalAlign=middle;resizable=0;points=[];autosize=1;strokeColor=none;fontSize=12;fontFamily=Bernina Sans Offc;" vertex="1" parent="G8Q9sJ8DLiGU8837OhOd-1">
          <mxGeometry x="52.4" y="245" width="190" height="50" as="geometry" />
        </mxCell>
        <mxCell id="LwGpSFiy7_9ZWBkNTmKJ-28" value="&lt;font face=&quot;Caveat&quot; data-font-src=&quot;https://fonts.googleapis.com/css?family=Caveat&quot; style=&quot;font-size: 16px&quot;&gt;Info taken from Cookies&lt;/font&gt;" style="text;html=1;align=center;verticalAlign=middle;resizable=0;points=[];autosize=1;strokeColor=none;fontSize=12;fontFamily=Bernina Sans Offc;" vertex="1" parent="G8Q9sJ8DLiGU8837OhOd-1">
          <mxGeometry x="700" y="275" width="150" height="20" as="geometry" />
        </mxCell>
        <mxCell id="LwGpSFiy7_9ZWBkNTmKJ-29" value="&lt;span style=&quot;color: rgb(41 , 41 , 41) ; letter-spacing: -0.063px ; background-color: rgb(255 , 255 , 255)&quot;&gt;Connection headers asking it to keep the &lt;br&gt;TCP connection alive for additional requests.&lt;/span&gt;" style="text;html=1;align=center;verticalAlign=middle;resizable=0;points=[];autosize=1;strokeColor=none;fontSize=12;fontFamily=Bernina Sans Offc;" vertex="1" parent="G8Q9sJ8DLiGU8837OhOd-1">
          <mxGeometry x="640.8" y="410" width="250" height="30" as="geometry" />
        </mxCell>
        <mxCell id="LwGpSFiy7_9ZWBkNTmKJ-31" value="&lt;span style=&quot;color: rgb(41 , 41 , 41) ; letter-spacing: -0.063px ; background-color: rgb(255 , 255 , 255)&quot;&gt;&lt;font style=&quot;font-size: 12px&quot;&gt;Browser identification&lt;/font&gt;&lt;/span&gt;" style="text;html=1;align=center;verticalAlign=middle;resizable=0;points=[];autosize=1;strokeColor=none;fontSize=12;fontFamily=Bernina Sans Offc;" vertex="1" parent="G8Q9sJ8DLiGU8837OhOd-1">
          <mxGeometry x="240" y="270" width="130" height="20" as="geometry" />
        </mxCell>
        <mxCell id="LwGpSFiy7_9ZWBkNTmKJ-32" value="Headers sent by browser" style="text;html=1;align=center;verticalAlign=middle;resizable=0;points=[];autosize=1;strokeColor=none;fontSize=12;fontFamily=Bernina Sans Offc;" vertex="1" parent="G8Q9sJ8DLiGU8837OhOd-1">
          <mxGeometry x="530" y="159.85" width="150" height="20" as="geometry" />
        </mxCell>
        <mxCell id="LwGpSFiy7_9ZWBkNTmKJ-35" value="HTTP Request sent by browser after ACK" style="text;html=1;align=center;verticalAlign=middle;resizable=0;points=[];autosize=1;strokeColor=none;fontSize=16;fontFamily=Bernina Sans Offc;" vertex="1" parent="G8Q9sJ8DLiGU8837OhOd-1">
          <mxGeometry x="360" y="40" width="310" height="20" as="geometry" />
        </mxCell>
      </root>
    </mxGraphModel>
  </diagram>
</mxfile>
